<?xml version="1.0" encoding="UTF-8"?>
<svg version="1.1" xmlns="http://www.w3.org/2000/svg" width="256" height="256">
<path d="M0 0 C21.21384156 19.63766772 35.95068688 46.39255051 39.18261719 75.35400391 C39.2921875 76.28470703 39.40175781 77.21541016 39.51464844 78.17431641 C42.78150533 109.44902641 34.21880999 142.0403796 14.49609375 166.75732422 C-6.22990438 191.95212492 -34.16256202 210.28211917 -67.15234375 214.12255859 C-104.64570212 217.37866923 -136.88017512 207.9231962 -165.80957031 183.86572266 C-185.13905086 166.92104815 -196.96727667 145.98033578 -203.81738281 121.35400391 C-204.00945312 120.68788086 -204.20152344 120.02175781 -204.39941406 119.33544922 C-209.43506017 101.14369716 -208.90197769 78.45824324 -203.81738281 60.35400391 C-203.52734375 59.3030957 -203.52734375 59.3030957 -203.23144531 58.23095703 C-194.30095898 26.67105934 -173.20380789 -0.1465576 -144.81738281 -16.64599609 C-97.90264775 -42.52038582 -39.74491981 -35.99680942 0 0 Z " fill="#FC9130" transform="translate(211.8173828125,36.64599609375)"/>
<path d="M0 0 C21.21384156 19.63766772 35.95068688 46.39255051 39.18261719 75.35400391 C39.2921875 76.28470703 39.40175781 77.21541016 39.51464844 78.17431641 C42.78150533 109.44902641 34.21880999 142.0403796 14.49609375 166.75732422 C-6.22990438 191.95212492 -34.16256202 210.28211917 -67.15234375 214.12255859 C-104.64570212 217.37866923 -136.88017512 207.9231962 -165.80957031 183.86572266 C-185.13905086 166.92104815 -196.96727667 145.98033578 -203.81738281 121.35400391 C-204.00945312 120.68788086 -204.20152344 120.02175781 -204.39941406 119.33544922 C-209.43506017 101.14369716 -208.90197769 78.45824324 -203.81738281 60.35400391 C-203.52734375 59.3030957 -203.52734375 59.3030957 -203.23144531 58.23095703 C-194.30095898 26.67105934 -173.20380789 -0.1465576 -144.81738281 -16.64599609 C-97.90264775 -42.52038582 -39.74491981 -35.99680942 0 0 Z M-166.12988281 12.10400391 C-171.87411558 23.16697071 -171.64664884 34.96990738 -169.37988281 46.91650391 C-169.21593018 47.79765869 -169.05197754 48.67881348 -168.88305664 49.58666992 C-167.08530708 58.38408635 -164.04071642 66.67253633 -160.7277832 75.00268555 C-160.33840576 76.00420654 -159.94902832 77.00572754 -159.54785156 78.03759766 C-159.19102295 78.91988037 -158.83419434 79.80216309 -158.46655273 80.71118164 C-157.02628433 86.5746286 -159.60443391 91.44905217 -162.06738281 96.66650391 C-168.65802419 111.36371944 -175.56011848 129.31867892 -169.48535156 145.35009766 C-167.90875039 148.88778003 -165.94844043 152.11951329 -163.81738281 155.35400391 C-163.28886719 156.15837891 -162.76035156 156.96275391 -162.21582031 157.79150391 C-160.53179944 160.11429132 -158.74134655 162.22520753 -156.81738281 164.35400391 C-155.521875 165.78873047 -155.521875 165.78873047 -154.20019531 167.25244141 C-136.95056473 185.69825695 -111.38654517 196.90381936 -86.56738281 200.60400391 C-62.77212535 201.29372151 -33.89558625 185.88225274 -16.81738281 170.35400391 C-16.16382813 169.77005859 -15.51027344 169.18611328 -14.83691406 168.58447266 C-6.13832413 160.38513954 2.34572396 148.33158583 3.48339844 136.12744141 C3.51125514 128.0489973 2.59267229 121.05465807 0.18261719 113.35400391 C-0.38005859 111.52482422 -0.38005859 111.52482422 -0.95410156 109.65869141 C-3.12685936 102.79959325 -5.59097269 96.27999168 -8.99707031 89.91650391 C-11.06731789 83.44944481 -7.66967369 76.65037357 -5.50488281 70.54150391 C-0.99434466 57.28304496 2.48678328 44.75200193 2.62011719 30.66650391 C2.63034912 29.84077881 2.64058105 29.01505371 2.65112305 28.16430664 C2.55788399 21.79601357 1.16655331 17.21968942 -2.50488281 11.91650391 C-5.19061822 10.10181782 -7.24885198 9.6639539 -10.48535156 9.85009766 C-19.97437423 11.90048949 -27.01740306 18.89516026 -33.81738281 25.35400391 C-35.16636136 26.50594065 -36.52022792 27.65218834 -37.87988281 28.79150391 C-41.10607144 31.53733447 -43.64599341 34.5707065 -46.31738281 37.85400391 C-50.30211658 42.3190706 -50.30211658 42.3190706 -54.50488281 42.60400391 C-55.95041257 42.21611079 -57.38737393 41.79569607 -58.81738281 41.35400391 C-75.88753037 37.8248385 -95.18751928 37.34614508 -112.09472656 41.79541016 C-114.88243437 42.36735021 -116.23271377 42.49282137 -118.81738281 41.35400391 C-120.31738281 39.92822266 -120.31738281 39.92822266 -121.81738281 38.04150391 C-129.44426362 28.96110619 -137.63218621 20.55143709 -147.81738281 14.35400391 C-148.51605469 13.92216797 -149.21472656 13.49033203 -149.93457031 13.04541016 C-155.17498063 10.09895377 -160.87135378 8.12457653 -166.12988281 12.10400391 Z " fill="#170606" transform="translate(211.8173828125,36.64599609375)"/>
<path d="M0 0 C21.21384156 19.63766772 35.95068688 46.39255051 39.18261719 75.35400391 C39.2921875 76.28470703 39.40175781 77.21541016 39.51464844 78.17431641 C42.78150533 109.44902641 34.21880999 142.0403796 14.49609375 166.75732422 C-6.22990438 191.95212492 -34.16256202 210.28211917 -67.15234375 214.12255859 C-104.64570212 217.37866923 -136.88017512 207.9231962 -165.80957031 183.86572266 C-185.13905086 166.92104815 -196.96727667 145.98033578 -203.81738281 121.35400391 C-204.00945312 120.68788086 -204.20152344 120.02175781 -204.39941406 119.33544922 C-209.43506017 101.14369716 -208.90197769 78.45824324 -203.81738281 60.35400391 C-203.52734375 59.3030957 -203.52734375 59.3030957 -203.23144531 58.23095703 C-194.30095898 26.67105934 -173.20380789 -0.1465576 -144.81738281 -16.64599609 C-97.90264775 -42.52038582 -39.74491981 -35.99680942 0 0 Z M-156.15722656 6.10791016 C-157.81738281 7.35400391 -157.81738281 7.35400391 -161.44238281 7.85400391 C-165.75540607 8.49297031 -166.97065676 9.93454336 -169.56738281 13.29541016 C-170.79815868 15.32234416 -171.43860243 17.01654155 -172.06738281 19.29150391 C-173.42915326 24.07391204 -175.87442907 27.79548363 -178.56738281 31.91650391 C-194.66258329 56.84736595 -199.77684305 85.89129573 -193.85253906 115.04931641 C-186.99489763 145.08129128 -168.34262226 171.02821814 -142.44628906 187.53759766 C-118.74106986 202.07413628 -89.89947579 207.31225251 -62.68847656 201.31103516 C-60.77228516 200.83730469 -60.77228516 200.83730469 -58.81738281 200.35400391 C-57.82955811 200.12849854 -57.82955811 200.12849854 -56.82177734 199.8984375 C-39.56703293 195.90509002 -22.66699861 187.64040603 -9.81738281 175.35400391 C-8.89957031 174.50193359 -7.98175781 173.64986328 -7.03613281 172.77197266 C14.90734649 151.70261547 27.60428585 124.41138328 28.46801758 93.92871094 C28.78205762 67.71344 20.65436856 45.38540297 5.85839844 24.01025391 C4.35567231 21.62831039 3.40780119 19.58140815 2.55761719 16.91650391 C0.78483146 12.32337724 -0.70970337 11.01191413 -4.81738281 8.35400391 C-5.82800781 8.18900391 -6.83863281 8.02400391 -7.87988281 7.85400391 C-11.89148283 7.17117837 -13.01215663 5.28674037 -15.81738281 2.35400391 C-25.86828792 -5.82603966 -38.3462552 -12.13700962 -50.81738281 -15.64599609 C-51.57792969 -15.89865234 -52.33847656 -16.15130859 -53.12207031 -16.41162109 C-87.74450466 -27.69433133 -129.66243681 -19.10581284 -156.15722656 6.10791016 Z " fill="#EB2B20" transform="translate(211.8173828125,36.64599609375)"/>
<path d="M0 0 C2.56724978 2.24198737 4.96873288 4.56399035 7.33984375 7.01171875 C8.0359375 7.72199219 8.73203125 8.43226563 9.44921875 9.1640625 C13.00433983 12.99095936 14.84463568 15.929449 16.33984375 21.01171875 C17.066875 20.42003906 17.79390625 19.82835937 18.54296875 19.21875 C27.67843406 12.03921124 37.55090859 5.84434122 49.54296875 5.9140625 C50.52265625 5.91728516 51.50234375 5.92050781 52.51171875 5.92382812 C53.5275 5.93220703 54.54328125 5.94058594 55.58984375 5.94921875 C57.13671875 5.95598633 57.13671875 5.95598633 58.71484375 5.96289062 C61.25656948 5.97465787 63.79817694 5.99109864 66.33984375 6.01171875 C64.55316047 22.87022531 53.83170823 35.7352404 41.27734375 46.57421875 C24.7052359 59.62475368 -1.81937873 72.88753839 -23.41015625 72.26171875 C-51.26903843 68.08093279 -80.80909613 54.31233017 -97.95117188 31.27685547 C-103.27634383 23.52223722 -108.25209785 15.68009829 -107.66015625 6.01171875 C-89.5271974 5.26396787 -73.65107673 7.45576447 -59.66015625 20.01171875 C-59.10714844 19.30789062 -58.55414063 18.6040625 -57.984375 17.87890625 C-40.1974427 -4.06329258 -40.1974427 -4.06329258 -29.16796875 -5.7734375 C-18.45361459 -6.69133388 -8.93380875 -6.6773989 0 0 Z " fill="#FCFCFB" transform="translate(148.66015625,164.98828125)"/>
<path d="M0 0 C0.99 1.485 0.99 1.485 2 3 C1.30777344 3.35449219 0.61554688 3.70898438 -0.09765625 4.07421875 C-11.87201653 10.4810841 -21.85800404 18.99601124 -30.3125 29.375 C-34.22900509 33.84915317 -34.22900509 33.84915317 -37.515625 34.4921875 C-40.1369395 34.2429214 -42.45124749 33.66010856 -45 33 C-52.74260757 31.83900921 -60.4721675 31.81383105 -68.28369141 31.81469727 C-70.49531136 31.81250465 -72.70643617 31.79427375 -74.91796875 31.77539062 C-82.2259642 31.74732881 -88.89037157 32.14180166 -96 34 C-99.35364854 34.42386391 -100.36886262 34.48172038 -103.0625 32.42578125 C-103.701875 31.72839844 -104.34125 31.03101563 -105 30.3125 C-105.68964844 29.57773438 -106.37929687 28.84296875 -107.08984375 28.0859375 C-107.72019531 27.39757812 -108.35054687 26.70921875 -109 26 C-110.2684375 24.7315625 -110.2684375 24.7315625 -111.5625 23.4375 C-112.86609613 22.13390387 -114.16240078 20.8213139 -115.40234375 19.45703125 C-120.04525691 14.49626585 -125.39770836 10.77734813 -131.01171875 7.015625 C-133.40000179 5.40470468 -135.71725979 3.75509953 -138 2 C-125.74872178 -9.84413604 -111.18907977 -16.57698098 -94.875 -20.75 C-94.05185303 -20.96100342 -93.22870605 -21.17200684 -92.38061523 -21.3894043 C-60.96265387 -29.01621691 -24.77470617 -21.10437933 0 0 Z " fill="#F22A1B" transform="translate(196,43)"/>
<path d="M0 0 C21.21384156 19.63766772 35.95068688 46.39255051 39.18261719 75.35400391 C39.2921875 76.28470703 39.40175781 77.21541016 39.51464844 78.17431641 C42.78150533 109.44902641 34.21880999 142.0403796 14.49609375 166.75732422 C-6.22990438 191.95212492 -34.16256202 210.28211917 -67.15234375 214.12255859 C-104.64570212 217.37866923 -136.88017512 207.9231962 -165.80957031 183.86572266 C-185.13905086 166.92104815 -196.96727667 145.98033578 -203.81738281 121.35400391 C-204.00945312 120.68788086 -204.20152344 120.02175781 -204.39941406 119.33544922 C-209.43506017 101.14369716 -208.90197769 78.45824324 -203.81738281 60.35400391 C-203.52734375 59.3030957 -203.52734375 59.3030957 -203.23144531 58.23095703 C-194.30095898 26.67105934 -173.20380789 -0.1465576 -144.81738281 -16.64599609 C-97.90264775 -42.52038582 -39.74491981 -35.99680942 0 0 Z M-176.16455078 13.43505859 C-186.76439289 25.74152225 -195.32758639 41.75997884 -199.81738281 57.35400391 C-200.08808594 58.27681152 -200.08808594 58.27681152 -200.36425781 59.21826172 C-208.72509152 88.8625015 -204.41541271 121.90485639 -189.98168945 148.9934082 C-175.03285173 175.55458975 -150.18087332 197.26872095 -120.87207031 206.25634766 C-91.24929348 214.45721041 -61.98486256 213.12586347 -33.81738281 200.35400391 C-32.73328125 199.88091797 -31.64917969 199.40783203 -30.53222656 198.92041016 C-1.69190547 185.50719099 18.84994354 160.1358485 29.97875977 130.84399414 C40.27766379 102.31261061 38.80696187 68.78207224 26.12792969 41.24853516 C11.50803794 11.29650052 -13.41857526 -11.77289781 -45.03808594 -22.66064453 C-93.42399268 -38.37359363 -142.28437722 -23.82465993 -176.16455078 13.43505859 Z " fill="#0A0303" transform="translate(211.8173828125,36.64599609375)"/>
<path d="M0 0 C3.85259284 3.3624192 5.81292234 7.03981649 8 11.5625 C8.52436646 12.63540283 8.52436646 12.63540283 9.05932617 13.72998047 C16.2437509 28.64876956 19.56326399 43.26819097 19.375 59.875 C19.36339844 61.19346924 19.35179687 62.51193848 19.33984375 63.87036133 C18.89190278 90.54096426 8.91261919 115.11081593 -9 135 C-9.68578125 135.76828125 -10.3715625 136.5365625 -11.078125 137.328125 C-22.66943375 149.60632612 -41.75702054 163.38347068 -59 165 C-56.68165963 162.68165963 -54.94046337 162.13597553 -51.875 161 C-31.72624296 152.73756006 -12.38657118 137.30159433 -3.17749023 117.20507812 C-1.11970915 112.2326674 -0.48848677 107.85855786 -0.5625 102.5 C-0.56934814 101.72317871 -0.57619629 100.94635742 -0.58325195 100.14599609 C-0.93745787 87.08415532 -5.05103076 74.59455339 -11.01953125 63.0234375 C-13.45267813 58.15714374 -13.29639366 54.13543788 -12 49 C-10.85879961 45.69879888 -9.66315787 42.42451 -8.44677734 39.15063477 C-6.23807749 33.04737071 -4.62203799 26.88979889 -3.1875 20.5625 C-2.8776416 19.21442261 -2.8776416 19.21442261 -2.56152344 17.83911133 C-1.26131575 11.91442547 -0.47219387 6.04586955 0 0 Z " fill="#F1291C" transform="translate(217,67)"/>
<path d="M0 0 C0.33 0 0.66 0 1 0 C1.10957031 1.09957031 1.21914063 2.19914062 1.33203125 3.33203125 C2.1320966 10.9395492 3.05492706 18.23125929 5.28125 25.578125 C5.98717785 27.95679492 6.51046843 30.31865987 7 32.75 C7.86034497 36.75309269 9.30253074 40.26556762 11 44 C11.57889243 45.34724057 12.14113548 46.70174307 12.6875 48.0625 C12.93886719 48.67222656 13.19023438 49.28195313 13.44921875 49.91015625 C14.99028583 55.75746752 13.44372513 59.82821154 10.75 65 C7.22881463 72.13104324 4.91338123 79.26955524 3 87 C2.77441406 87.80953125 2.54882812 88.6190625 2.31640625 89.453125 C-0.98823782 102.12472571 1.42569817 112.53243383 7.57421875 123.9140625 C19.86986598 144.26350198 39.89695901 157.23406668 62 165 C58.04807514 166.31730829 55.78498989 165.03156358 52.125 163.5 C51.45879639 163.22518799 50.79259277 162.95037598 50.10620117 162.66723633 C19.62986175 149.82004205 0.64474901 128.25361596 -12.50390625 98.609375 C-22.23883387 74.08316928 -21.45341767 43.67011245 -11.13671875 19.45703125 C-7.99031711 12.47413608 -4.68183879 6.09193575 0 0 Z " fill="#F0291B" transform="translate(38,67)"/>
<path d="M0 0 C2.26171875 1.921875 2.26171875 1.921875 3.26171875 3.921875 C4.49921875 4.169375 5.73671875 4.416875 7.01171875 4.671875 C10.79956817 5.5579612 12.83401925 6.87453675 15.19604492 10.10327148 C16.33573611 12.04818778 17.20057159 13.99956531 18.0625 16.08203125 C20.18658196 20.95099696 22.85080619 25.32427782 25.69921875 29.796875 C32.31336826 40.407734 38.78826531 51.0214842 38.26171875 63.921875 C37.27171875 64.416875 37.27171875 64.416875 36.26171875 64.921875 C36.0915625 64.3642749 35.92140625 63.8066748 35.74609375 63.23217773 C32.32845479 52.17143462 28.64758948 41.80949413 22.86328125 31.7578125 C21.26171875 28.921875 21.26171875 28.921875 20.26171875 25.921875 C19.60171875 25.921875 18.94171875 25.921875 18.26171875 25.921875 C18.26171875 28.891875 18.26171875 31.861875 18.26171875 34.921875 C17.93171875 34.921875 17.60171875 34.921875 17.26171875 34.921875 C17.22433594 34.09945312 17.18695313 33.27703125 17.1484375 32.4296875 C16.66705269 24.25558471 16.09538751 16.32980418 11.57421875 9.296875 C8.05619321 7.20507603 5.15689878 7.08020293 1.26171875 7.921875 C-7.11638351 11.24055527 -13.29095538 16.79799358 -19.73828125 22.921875 C-21.0872598 24.07381174 -22.44112635 25.22005944 -23.80078125 26.359375 C-27.02696987 29.10520556 -29.56689185 32.1385776 -32.23828125 35.421875 C-36.22301501 39.8869417 -36.22301501 39.8869417 -40.42578125 40.171875 C-41.87131101 39.78398188 -43.30827237 39.36356716 -44.73828125 38.921875 C-61.8084288 35.3927096 -81.10841772 34.91401618 -98.015625 39.36328125 C-100.85021651 39.9448402 -102.12926028 40.12603852 -104.73828125 38.921875 C-106.74609375 36.98828125 -106.74609375 36.98828125 -108.86328125 34.484375 C-124.44746639 16.21153485 -124.44746639 16.21153485 -145.98828125 7.296875 C-149.85007554 7.53387951 -149.85007554 7.53387951 -151.86328125 10.34375 C-154.41411805 14.51705783 -154.87676432 19.01984862 -155.48828125 23.796875 C-155.61332031 24.67601562 -155.73835938 25.55515625 -155.8671875 26.4609375 C-156.17123998 28.61269354 -156.45666291 30.76706803 -156.73828125 32.921875 C-157.06828125 32.921875 -157.39828125 32.921875 -157.73828125 32.921875 C-157.73828125 30.611875 -157.73828125 28.301875 -157.73828125 25.921875 C-158.39828125 25.921875 -159.05828125 25.921875 -159.73828125 25.921875 C-159.98964844 26.60507813 -160.24101562 27.28828125 -160.5 27.9921875 C-161.66806349 30.75574466 -163.03277917 33.32176772 -164.50537109 35.93286133 C-178.98489775 61.75051336 -180.49774122 90.43621975 -173.73828125 118.921875 C-165.74095661 145.27333674 -147.51664015 168.19815429 -123.73828125 181.921875 C-121.09355512 183.30803248 -118.42664182 184.62067292 -115.73828125 185.921875 C-115.73828125 187.241875 -115.73828125 188.561875 -115.73828125 189.921875 C-120.45052381 188.56024364 -124.35335323 186.53779276 -128.42578125 183.859375 C-129.03663574 183.45944336 -129.64749023 183.05951172 -130.27685547 182.64746094 C-157.37257327 164.62135074 -173.08784714 139.14314719 -180.4921875 107.72265625 C-185.51391135 80.85818952 -180.00938686 53.08261919 -165.73828125 29.921875 C-164.49000094 28.13507218 -163.22126789 26.36225333 -161.92578125 24.609375 C-158.94940155 20.57816095 -157.71932792 16.93133695 -156.46484375 12.125 C-155.32985276 8.68341441 -153.66816333 6.9861101 -150.73828125 4.921875 C-149.64515625 4.798125 -148.55203125 4.674375 -147.42578125 4.546875 C-142.85165201 3.77159886 -141.38291207 2.0576506 -138.09765625 -1.04296875 C-98.94464978 -34.81567798 -39.357155 -29.86876813 0 0 Z M-136.73828125 1.921875 C-138.48488208 4.04010236 -138.48488208 4.04010236 -139.73828125 5.921875 C-139.01125 6.29957031 -138.28421875 6.67726563 -137.53515625 7.06640625 C-129.05584086 11.70828788 -122.61273456 17.15717348 -115.73828125 23.921875 C-114.44664063 25.1903125 -114.44664063 25.1903125 -113.12890625 26.484375 C-111.63266726 28.00995201 -110.17532597 29.575847 -108.78125 31.1953125 C-105.38056603 35.29541326 -105.38056603 35.29541326 -100.65625 37.24609375 C-98.58846098 36.98119535 -96.73905493 36.50384909 -94.73828125 35.921875 C-88.16573016 34.6256252 -81.62371771 34.73583513 -74.95556641 34.73657227 C-72.77225559 34.73440867 -70.58947013 34.71628666 -68.40625 34.69726562 C-60.33182377 34.66600757 -52.66936633 35.14220474 -44.69140625 36.4909668 C-41.94167123 36.89219715 -39.50510693 37.18371408 -36.73828125 36.921875 C-34.69363591 35.03057806 -33.00556413 33.23307969 -31.23828125 31.109375 C-22.02053921 20.6228988 -12.11520207 12.45599716 0.26171875 5.921875 C-3.04361946 1.14078527 -6.91836812 -1.49497553 -11.80078125 -4.453125 C-12.58791504 -4.93136719 -13.37504883 -5.40960938 -14.18603516 -5.90234375 C-51.36976304 -27.71718944 -103.28440886 -27.18972145 -136.73828125 1.921875 Z " fill="#190605" transform="translate(197.73828125,40.078125)"/>
<path d="M0 0 C0.82951172 -0.00386719 1.65902344 -0.00773438 2.51367188 -0.01171875 C3.37669922 -0.00011719 4.23972656 0.01148438 5.12890625 0.0234375 C5.98806641 0.01183594 6.84722656 0.00023437 7.73242188 -0.01171875 C11.32479041 0.0050029 13.98920026 0.0628322 17.2578125 1.625 C19.64389295 4.57671805 19.23575702 7.16842858 19.0703125 10.82421875 C18.45704906 14.99061674 17.33981284 17.0709523 14.69140625 20.3984375 C12.36977164 21.79042399 10.29168099 22.54834768 7.69140625 23.3984375 C7.36140625 26.3684375 7.03140625 29.3384375 6.69140625 32.3984375 C8.94168954 32.25704269 11.19162831 32.11015747 13.44140625 31.9609375 C14.694375 31.87972656 15.94734375 31.79851562 17.23828125 31.71484375 C19.87458178 31.47328228 22.17177919 31.15559816 24.69140625 30.3984375 C23.48759177 32.89205321 22.23711903 35.07986833 20.69140625 37.3984375 C20.36847659 39.18145084 20.10305347 40.97533345 19.87890625 42.7734375 C19.01165315 48.01858425 17.92246027 50.22514698 13.69140625 53.3984375 C9.50974749 55.48926688 4.24506402 54.83240227 -0.30859375 54.3984375 C-3.51711023 53.22116814 -5.61785947 51.55708855 -7.3984375 48.5703125 C-8.72271702 45.41022918 -9.11934874 42.20566788 -9.6484375 38.8359375 C-10.38363443 36.12136423 -11.5010197 34.5261541 -13.30859375 32.3984375 C-12.97859375 31.7384375 -12.64859375 31.0784375 -12.30859375 30.3984375 C-11.64859375 30.7284375 -10.98859375 31.0584375 -10.30859375 31.3984375 C-7.76244366 31.63016577 -5.2346315 31.81738279 -2.68359375 31.9609375 C-1.9771875 32.00412109 -1.27078125 32.04730469 -0.54296875 32.09179688 C1.20159162 32.19788501 2.94647322 32.29866639 4.69140625 32.3984375 C4.69140625 29.4284375 4.69140625 26.4584375 4.69140625 23.3984375 C3.36109375 23.0890625 3.36109375 23.0890625 2.00390625 22.7734375 C-2.61666374 20.85546505 -5.04774369 17.92013763 -7.30859375 13.3984375 C-7.45499876 11.75701209 -7.52955964 10.1086234 -7.55859375 8.4609375 C-7.59726563 7.14802734 -7.59726563 7.14802734 -7.63671875 5.80859375 C-7.00969734 1.20297224 -4.36669298 0.01957531 0 0 Z " fill="#090909" transform="translate(122.30859375,168.6015625)"/>
<path d="M0 0 C2.5752212 2.5752212 2.29798981 3.6034832 2.3125 7.1875 C2.10634531 18.02350585 -0.74987228 28.41190764 -3.5625 38.8125 C-3.77221436 39.5957666 -3.98192871 40.3790332 -4.19799805 41.18603516 C-5.7583085 46.7583085 -5.7583085 46.7583085 -8 49 C-8.51949219 48.34773438 -9.03898437 47.69546875 -9.57421875 47.0234375 C-11.02251806 45.20837847 -12.47590847 43.3973735 -13.93359375 41.58984375 C-15.41214747 39.73676035 -16.84638679 37.84797354 -18.25 35.9375 C-22.2373819 31.1165191 -27.94355964 27.62902418 -33 24 C-29.31002488 13.66806966 -18.10369943 6.36418452 -8.83203125 1.25390625 C-5.61892846 -0.16872271 -3.47728363 -0.39514587 0 0 Z " fill="#FEFBF5" transform="translate(204,61)"/>
<path d="M0 0 C10.77742698 2.22284431 18.30207657 10.61615087 25.875 18 C26.82890625 18.9075 27.7828125 19.815 28.765625 20.75 C30.875 23 30.875 23 30.875 25 C27.96899739 26.25664978 26.07895416 27 22.875 27 C21.3671875 25.53125 21.3671875 25.53125 19.75 23.5 C15.86270374 18.83857408 11.48558495 14.93102027 6.875 11 C6.545 11.99 6.215 12.98 5.875 14 C4.885 14 3.895 14 2.875 14 C3.04630766 22.78341071 4.64001877 30.22927119 8.875 38 C9.535 38.33 10.195 38.66 10.875 39 C9.50812778 42.98671063 7.72304907 45.88494633 4.875 49 C4.215 49 3.555 49 2.875 49 C-7.81620579 14.37418795 -7.81620579 14.37418795 -6.125 3 C-4.10229891 0.15632023 -3.59635256 0 0 0 Z " fill="#FEFBF5" transform="translate(55.125,61)"/>
<path d="M0 0 C7.16330718 6.11501832 11.50078316 18.92140911 13 28 C13.19580987 31.05285395 13.15064437 33.93689783 13 37 C12.34128906 36.83757812 11.68257812 36.67515625 11.00390625 36.5078125 C7.30290008 35.88215476 3.67783333 35.85442988 -0.0625 35.875 C-0.76955078 35.87113281 -1.47660156 35.86726563 -2.20507812 35.86328125 C-5.60894531 35.86967349 -8.74724463 35.93546188 -12 37 C-12.91665999 23.7084302 -7.75865834 12.12251648 -1 1 C-0.67 0.67 -0.34 0.34 0 0 Z " fill="#FEFBF6" transform="translate(127,117)"/>
<path d="M0 0 C0.66 0 1.32 0 2 0 C2.12375 1.03125 2.2475 2.0625 2.375 3.125 C2.86552839 6.87192542 2.86552839 6.87192542 3.97265625 9.81640625 C5.05276502 13.16351137 5.55376508 16.33426051 6.0625 19.8125 C7.51366139 28.74255735 10.73026315 37.00433031 14.03930664 45.39379883 C14.4336792 46.42142334 14.82805176 47.44904785 15.234375 48.5078125 C15.59756836 49.42191895 15.96076172 50.33602539 16.33496094 51.27783203 C17.78021264 57.19360165 15.23652857 62.04509766 12.75 67.3125 C6.15935862 82.00971553 -0.74273567 99.96467501 5.33203125 115.99609375 C8.44896053 122.98892091 12.89105563 129.32897138 18 135 C18.79019531 135.88300781 19.58039062 136.76601562 20.39453125 137.67578125 C34.35350359 152.45226295 52.44917327 161.14994899 72 166 C70.76171875 167.51953125 70.76171875 167.51953125 69 169 C66.21464152 169.10118893 63.76464243 168.49854208 61 168 C61 168.66 61 169.32 61 170 C54.69403048 168.89061647 49.62470514 167.06802099 44 164 C44 163.01 44 162.02 44 161 C44.90492187 161.30744141 44.90492187 161.30744141 45.828125 161.62109375 C47.02695313 162.02521484 47.02695313 162.02521484 48.25 162.4375 C49.03890625 162.70433594 49.8278125 162.97117188 50.640625 163.24609375 C52.74910774 163.91983078 54.8510768 164.47466361 57 165 C56.48727539 164.77449463 55.97455078 164.54898926 55.44628906 164.31665039 C44.65261246 159.52040068 35.05396678 154.68174596 26 147 C25.14277344 146.31550781 24.28554688 145.63101563 23.40234375 144.92578125 C12.42678638 135.7483832 1.20791844 121.25740187 -0.23828125 106.58203125 C-0.65777437 90.92831429 4.59734218 75.56378506 11.66015625 61.75390625 C13.50746892 57.95695163 13.64542198 55.14701599 12.42578125 51.08984375 C11.24210642 47.8394351 9.86917762 44.71219076 8.4375 41.5625 C7.06062128 38.15023535 6.25237459 35.00556359 5.53125 31.41796875 C4.98114649 28.9141888 4.25056468 26.51309367 3.5 24.0625 C1.29310601 16.22074469 0.75592897 8.08399337 0 0 Z " fill="#260C08" transform="translate(38,66)"/>
<path d="M0 0 C0.28875 0.639375 0.5775 1.27875 0.875 1.9375 C1.82823451 4.15206079 1.82823451 4.15206079 4 5 C2.06547916 20.83252584 -1.20703156 35.87176572 -6.80151367 50.83227539 C-9.84498962 59.31281569 -8.25842645 64.97101503 -4.6875 72.9375 C1.79701754 88.19450317 7.18193916 106.09899168 1.0625 122.375 C-9.49615034 143.81763724 -29.38177802 158.86672017 -51 168 C-53.8984375 168.68359375 -53.8984375 168.68359375 -56 169 C-56 169.66 -56 170.32 -56 171 C-59.61973402 172.31626692 -62.09567131 173 -66 173 C-66 172.34 -66 171.68 -66 171 C-66.66 170.67 -67.32 170.34 -68 170 C-66.89785156 169.67128906 -65.79570312 169.34257812 -64.66015625 169.00390625 C-40.29382428 161.47490738 -17.70810044 148.54371661 -4.7421875 125.79296875 C1.7130658 113.28890403 1.14252239 101.23626674 -3 88 C-3.37511719 86.78054687 -3.75023437 85.56109375 -4.13671875 84.3046875 C-6.30947655 77.44558934 -8.77358988 70.92598777 -12.1796875 64.5625 C-14.24963764 58.09637002 -10.8533082 51.2953948 -8.6875 45.1875 C-3.5593729 30.19567119 -0.43197312 15.85341349 0 0 Z " fill="#270F09" transform="translate(214,62)"/>
<path d="M0 0 C13.77796216 2.37551072 25.92852737 10.61521869 36 20 C36 20.33 36 20.66 36 21 C25.96364545 22.82479174 15.08702003 23.57227099 6.18359375 17.828125 C3.25942182 15.54515703 1.3429444 13.43471955 0 10 C-0.1953125 7.421875 -0.1953125 7.421875 -0.125 4.75 C-0.09792969 3.41195312 -0.09792969 3.41195312 -0.0703125 2.046875 C-0.04710938 1.37140625 -0.02390625 0.6959375 0 0 Z " fill="#080503" transform="translate(73,138)"/>
<path d="M0 0 C8.58 0 17.16 0 26 0 C26 10.6130031 26 10.6130031 22 16 C17.74780556 19.02378271 14.15628036 19.73661148 9 19 C4.46307354 16.03354809 1.80714828 13.12025347 0 8 C0 5.36 0 2.72 0 0 Z " fill="#EE3246" transform="translate(115,203)"/>
<path d="M0 0 C0.45913774 8.75762729 0.45913774 8.75762729 -1.0625 12.875 C-5.09961229 17.30280058 -11.5105261 20.68249577 -17.49536133 21.22705078 C-18.3489624 21.21657715 -19.20256348 21.20610352 -20.08203125 21.1953125 C-21.01337891 21.18886719 -21.94472656 21.18242187 -22.90429688 21.17578125 C-23.86400391 21.15902344 -24.82371094 21.14226562 -25.8125 21.125 C-26.79154297 21.11597656 -27.77058594 21.10695312 -28.77929688 21.09765625 C-31.18645061 21.07417182 -33.59309743 21.0413284 -36 21 C-36 20.34 -36 19.68 -36 19 C-34.03570362 17.37638627 -32.08191215 15.89805338 -30 14.4375 C-29.37931641 14.00002441 -28.75863281 13.56254883 -28.11914062 13.11181641 C-23.36728473 9.82452505 -18.50041925 6.76908628 -13.5 3.875 C-12.51386719 3.28996704 -12.51386719 3.28996704 -11.5078125 2.69311523 C-7.50204024 0.44140116 -4.58873143 -0.43904529 0 0 Z " fill="#090503" transform="translate(182,139)"/>
<path d="M0 0 C5.18418102 1.48398402 8.16004597 4.74574959 11.8125 8.5 C12.7087207 9.39138672 12.7087207 9.39138672 13.62304688 10.30078125 C18 14.73275893 18 14.73275893 18 17 C18.66 17.33 19.32 17.66 20 18 C19.11248047 18.67095703 19.11248047 18.67095703 18.20703125 19.35546875 C13.85117433 22.68809011 9.75643454 26.00121485 6 30 C1.39922794 26.38510767 -0.56122118 21.53030608 -2 16 C-2.30328796 11.97195672 -2.24924405 8.0294455 -2 4 C-1.01 4 -0.02 4 1 4 C0.67 2.68 0.34 1.36 0 0 Z " fill="#F9D5CE" transform="translate(60,71)"/>
<path d="M0 0 C5.5 3 5.5 3 7 6 C7.09472912 7.51845202 7.1298841 9.04110384 7.125 10.5625 C7.12886719 11.77099609 7.12886719 11.77099609 7.1328125 13.00390625 C7 15 7 15 6 16 C2.86257232 16.27686887 -0.28929277 16.23173629 -3.4375 16.25 C-4.76491211 16.2809375 -4.76491211 16.2809375 -6.11914062 16.3125 C-7.38854492 16.32023437 -7.38854492 16.32023437 -8.68359375 16.328125 C-9.46275146 16.3374707 -10.24190918 16.34681641 -11.04467773 16.35644531 C-12.01256226 16.18000488 -12.01256226 16.18000488 -13 16 C-15.36086122 12.45870816 -15.57269578 11.17249782 -15 7 C-11.16970911 0.84875218 -7.16128842 -0.9964687 0 0 Z " fill="#FEFBF7" transform="translate(170,116)"/>
<path d="M0 0 C4.05190595 0.82812676 6.81366517 3.07083471 9.140625 6.4375 C9.86245647 9.45912009 9.61516196 11.27392027 9.140625 14.4375 C6.77494278 16.80318222 6.28830274 16.69321704 3.078125 16.703125 C1.88316406 16.70699219 1.88316406 16.70699219 0.6640625 16.7109375 C-0.16867188 16.70320313 -1.00140625 16.69546875 -1.859375 16.6875 C-2.69210938 16.69523437 -3.52484375 16.70296875 -4.3828125 16.7109375 C-5.17945312 16.70835937 -5.97609375 16.70578125 -6.796875 16.703125 C-7.52777344 16.70086914 -8.25867188 16.69861328 -9.01171875 16.69628906 C-10.859375 16.4375 -10.859375 16.4375 -12.859375 14.4375 C-13.32701439 10.30668542 -13.32430778 8.15894742 -11.046875 4.625 C-7.52607334 1.10419834 -5.04331556 -0.14943157 0 0 Z " fill="#FEFCF7" transform="translate(90.859375,115.5625)"/>
<path d="M0 0 C0.99 0.99 0.99 0.99 2 2 C0.53822998 15.85201118 -12.05049295 28.34298643 -22 37 C-31.52559559 44.33948383 -43.93891113 53.18411115 -56 55 C-56 55.66 -56 56.32 -56 57 C-59.61973402 58.31626692 -62.09567131 59 -66 59 C-66 58.34 -66 57.68 -66 57 C-66.66 56.67 -67.32 56.34 -68 56 C-66.34677734 55.50693359 -66.34677734 55.50693359 -64.66015625 55.00390625 C-40.29382428 47.47490738 -17.70810044 34.54371661 -4.7421875 11.79296875 C-2.76826422 7.96940625 -1.23922447 4.13074824 0 0 Z " fill="#1D1613" transform="translate(214,176)"/>
<path d="M0 0 C2.64647813 2.40084693 4.30172204 5.00168314 6.125 8.0625 C18.29837663 27.33701299 37.78262104 39.54524523 59 47 C55.04807514 48.31730829 52.78498989 47.03156358 49.125 45.5 C48.45879639 45.22518799 47.79259277 44.95037598 47.10620117 44.66723633 C26.39725617 35.937453 7.96332371 22.27182692 -4 3 C-3.01 2.67 -2.02 2.34 -1 2 C-0.67 1.34 -0.34 0.68 0 0 Z " fill="#EE812E" transform="translate(41,185)"/>
<path d="M0 0 C1.32 0.33 2.64 0.66 4 1 C2.19564008 11.95146231 -11.82047482 22.68164891 -20.25 28.9375 C-29.92979634 35.86701365 -42.97238743 43.87241132 -55 45 C-52.68165963 42.68165963 -50.94046337 42.13597553 -47.875 41 C-27.72606065 32.7374853 -11.57854053 18.32208611 0 0 Z " fill="#CB7032" transform="translate(213,187)"/>
<path d="M0 0 C0.66 0 1.32 0 2 0 C2 2.97 2 5.94 2 9 C4.25028329 8.85860519 6.50022206 8.71171997 8.75 8.5625 C10.00296875 8.48128906 11.2559375 8.40007812 12.546875 8.31640625 C15.18317553 8.07484478 17.48037294 7.75716066 20 7 C18.79618552 9.49361571 17.54571278 11.68143083 16 14 C15.67707034 15.78301334 15.41164722 17.57689595 15.1875 19.375 C14.3202469 24.62014675 13.23105402 26.82670948 9 30 C4.81834124 32.09082938 -0.44634223 31.43396477 -5 31 C-8.20851648 29.82273064 -10.30926572 28.15865105 -12.08984375 25.171875 C-13.41412327 22.01179168 -13.81075499 18.80723038 -14.33984375 15.4375 C-15.07504068 12.72292673 -16.19242595 11.1277166 -18 9 C-17.67 8.34 -17.34 7.68 -17 7 C-16.34 7.33 -15.68 7.66 -15 8 C-12.45384991 8.23172827 -9.92603775 8.41894529 -7.375 8.5625 C-6.66859375 8.60568359 -5.9621875 8.64886719 -5.234375 8.69335938 C-3.48981463 8.79944751 -1.74493303 8.90022889 0 9 C0 6.03 0 3.06 0 0 Z M-12 11 C-12 19.77696241 -10.84728891 22.89622516 -5.125 29 C-0.8967473 30.98976598 2.84644153 30.3619007 7.1875 29 C10.93208109 26.33718678 12.78776182 23.42823475 14 19 C14 16.36 14 13.72 14 11 C5.42 11 -3.16 11 -12 11 Z " fill="#292223" transform="translate(127,192)"/>
<path d="M0 0 C3.72643166 0.60822218 5.87093848 2.25353235 8.8125 4.5625 C20.59679567 13.30669811 34.44712781 20.43025491 49 23 C48 24.5625 48 24.5625 46 26 C43.23385218 25.96726452 40.73969453 25.49404328 38 25 C38 25.66 38 26.32 38 27 C31.69403048 25.89061647 26.62470514 24.06802099 21 21 C21 20.01 21 19.02 21 18 C21.60328125 18.20496094 22.2065625 18.40992188 22.828125 18.62109375 C23.62734375 18.89050781 24.4265625 19.15992188 25.25 19.4375 C26.03890625 19.70433594 26.8278125 19.97117188 27.640625 20.24609375 C29.74910774 20.91983078 31.8510768 21.47466361 34 22 C33.48727539 21.77449463 32.97455078 21.54898926 32.44628906 21.31665039 C6.76722333 9.90596836 6.76722333 9.90596836 0 0 Z " fill="#1E100E" transform="translate(61,209)"/>
<path d="M0 0 C0.3483523 8.36045512 -1.22930325 15.08372357 -4 23 C-8.2787087 21.18977709 -12.93454365 18.40571366 -14.86328125 14.05078125 C-15 12 -15 12 -13.8125 10.25390625 C-2.82448037 0 -2.82448037 0 0 0 Z " fill="#F89089" transform="translate(196,74)"/>
<path d="M0 0 C0.33 0.99 0.66 1.98 1 3 C0.24074219 3.61488281 -0.51851562 4.22976562 -1.30078125 4.86328125 C-2.79158203 6.07564453 -2.79158203 6.07564453 -4.3125 7.3125 C-5.29863281 8.11300781 -6.28476563 8.91351563 -7.30078125 9.73828125 C-8.19152344 10.48464844 -9.08226562 11.23101562 -10 12 C-10.91845703 12.76376953 -10.91845703 12.76376953 -11.85546875 13.54296875 C-13.41181896 15.21545991 -13.41181896 15.21545991 -13 19 C-12.46375 19.226875 -11.9275 19.45375 -11.375 19.6875 C-8.21499137 21.43382056 -5.7323017 23.6402849 -3 26 C-2.87625 25.175 -2.7525 24.35 -2.625 23.5 C-2.17118356 20.95862792 -1.65004204 18.55109376 -1 16.0625 C-0.05136908 12.38832502 0.52949625 8.76403001 1 5 C1.33 5 1.66 5 2 5 C2.57682368 13.895903 2.67271494 21.66541928 -3 29 C-3.99 29.33 -4.98 29.66 -6 30 C-6.35191406 29.55269531 -6.70382813 29.10539062 -7.06640625 28.64453125 C-10.65471327 24.25049472 -14.26608837 21.12438167 -19 18 C-18.34 17.67 -17.68 17.34 -17 17 C-16.86980469 16.23816406 -16.73960937 15.47632812 -16.60546875 14.69140625 C-15.31602183 8.95960673 -9.30622559 4.74796146 -4.625 1.5 C-2 0 -2 0 0 0 Z " fill="#FCDECC" transform="translate(195,71)"/>
<path d="M0 0 C4.29718953 1.38914475 6.70687757 3.38031985 9.8125 6.625 C10.99779297 7.85089844 10.99779297 7.85089844 12.20703125 9.1015625 C12.79871094 9.72804688 13.39039062 10.35453125 14 11 C12.61811547 14.21043882 11.07578097 16.04936365 8.375 18.25 C7.74335937 18.77078125 7.11171875 19.2915625 6.4609375 19.828125 C5.97882813 20.21484375 5.49671875 20.6015625 5 21 C4.72285156 20.14535156 4.44570312 19.29070312 4.16015625 18.41015625 C3.61681641 16.75306641 3.61681641 16.75306641 3.0625 15.0625 C2.70285156 13.96035156 2.34320313 12.85820313 1.97265625 11.72265625 C1.26143332 9.11876525 1.26143332 9.11876525 0 8 C-0.14115161 5.32941149 -0.04247107 2.67567762 0 0 Z " fill="#F78D80" transform="translate(60,77)"/>
<path d="M0 0 C8.58 0 17.16 0 26 0 C26 2.64 26 5.28 26 8 C25.67 6.68 25.34 5.36 25 4 C21.37 4 17.74 4 14 4 C14 4.99 14 5.98 14 7 C13.34 7 12.68 7 12 7 C12 6.01 12 5.02 12 4 C8.37 4 4.74 4 1 4 C0.67 5.32 0.34 6.64 0 8 C0 5.36 0 2.72 0 0 Z " fill="#911A33" transform="translate(115,203)"/>
<path d="M0 0 C3.23150555 0.28164498 4.06908567 1.07637021 6.296875 3.5390625 C7.10640625 4.55742188 7.9159375 5.57578125 8.75 6.625 C11.86934022 10.46635481 11.86934022 10.46635481 16.21875 12.5390625 C18.57783197 12.26531658 18.57783197 12.26531658 22 11 C26.78132204 10.10350212 31.14921399 9.91636576 36 10 C36 10.33 36 10.66 36 11 C34.35 11.33 32.7 11.66 31 12 C31 12.33 31 12.66 31 13 C28.58525383 13.53160457 26.16891893 14.05054766 23.75 14.5625 C23.06808594 14.71396484 22.38617188 14.86542969 21.68359375 15.02148438 C14.89562464 16.43839055 14.89562464 16.43839055 12 15 C9.74609375 12.8203125 9.74609375 12.8203125 7.4375 10.125 C4.4380193 6.61234276 4.4380193 6.61234276 1.22265625 3.3046875 C0 2 0 2 0 0 Z " fill="#240D08" transform="translate(81,64)"/>
<path d="M0 0 C3.9234017 2.54877921 7.54999389 5.23773508 11.1875 8.1875 C20.40524077 15.18186611 31.24101705 19.84855405 42 24 C38.04807514 25.31730829 35.78498989 24.03156358 32.125 22.5 C31.45879639 22.22518799 30.79259277 21.95037598 30.10620117 21.66723633 C18.64250244 16.83475423 8.70542263 10.71187636 -1 3 C-0.67 2.01 -0.34 1.02 0 0 Z " fill="#C87939" transform="translate(58,208)"/>
<path d="M0 0 C4.28069903 1.58544408 6.29521912 4.4687583 9 8 C9 8.33 9 8.66 9 9 C3.72 9 -1.56 9 -7 9 C-5.02253559 4.05633898 -4.11167879 2.92145598 0 0 Z " fill="#222429" transform="translate(127,170)"/>
<path d="M0 0 C1.32 0.33 2.64 0.66 4 1 C3.40816737 4.86484645 1.57924369 7.08234694 -0.875 10.0625 C-1.57367188 10.91972656 -2.27234375 11.77695313 -2.9921875 12.66015625 C-4.59871979 14.53236022 -6.22135829 16.29407006 -8 18 C-8.99 17.67 -9.98 17.34 -11 17 C-7.75085503 11.02157325 -3.96018357 5.52868324 0 0 Z " fill="#E37622" transform="translate(213,187)"/>
<path d="M0 0 C2 3 2 3 3.41015625 5.56640625 C6.98784612 12.05361223 10.8713992 17.48048867 15.984375 22.84375 C17.82210937 24.80969839 19.43179155 26.81641862 21 29 C20.01 29.33 19.02 29.66 18 30 C10.1185679 21.80140765 2.0175733 13.26875029 -1 2 C-0.67 1.34 -0.34 0.68 0 0 Z " fill="#241A18" transform="translate(42,180)"/>
<path d="M0 0 C0.66 0 1.32 0 2 0 C2 2.97 2 5.94 2 9 C4.25028329 8.85860519 6.50022206 8.71171997 8.75 8.5625 C10.00296875 8.48128906 11.2559375 8.40007812 12.546875 8.31640625 C15.18317553 8.07484478 17.48037294 7.75716066 20 7 C18.33333333 10.33333333 16.66666667 13.66666667 15 17 C14.67 17 14.34 17 14 17 C14 15.02 14 13.04 14 11 C5.42 11 -3.16 11 -12 11 C-12 10.67 -12 10.34 -12 10 C-8.04 10 -4.08 10 0 10 C0 6.7 0 3.4 0 0 Z " fill="#241418" transform="translate(127,192)"/>
<path d="M0 0 C0.28875 0.639375 0.5775 1.27875 0.875 1.9375 C1.82823451 4.15206079 1.82823451 4.15206079 4 5 C3.08283085 12.7235297 1.84523778 20.26037654 0 27.8125 C-0.2489502 28.86147461 -0.2489502 28.86147461 -0.50292969 29.93164062 C-0.93537893 31.63934783 -1.46004311 33.32318075 -2 35 C-2.99 35.495 -2.99 35.495 -4 36 C-3.53243513 31.24642377 -2.95040828 26.61861541 -2 21.9375 C-0.6160168 14.68708056 -0.35083615 7.35832652 0 0 Z " fill="#260F08" transform="translate(214,62)"/>
<path d="M0 0 C0.33 0.99 0.66 1.98 1 3 C0.24074219 3.61488281 -0.51851562 4.22976562 -1.30078125 4.86328125 C-2.29464844 5.67152344 -3.28851563 6.47976562 -4.3125 7.3125 C-5.29863281 8.11300781 -6.28476563 8.91351563 -7.30078125 9.73828125 C-10.32563974 12.19787714 -10.32563974 12.19787714 -13 15 C-13 15.99 -13 16.98 -13 18 C-13.99 17.67 -14.98 17.34 -16 17 C-16.31274945 13.8994667 -16.33669241 12.45889295 -14.4609375 9.90234375 C-3.94831014 0 -3.94831014 0 0 0 Z " fill="#FACFBE" transform="translate(195,71)"/>
<path d="M0 0 C3.34820898 1.46625856 5.69266359 3.33658447 8.3125 5.875 C9.38951172 6.89207031 9.38951172 6.89207031 10.48828125 7.9296875 C12 10 12 10 11.85546875 12.1953125 C11 14 11 14 9 15 C8.55269531 14.48050781 8.10539062 13.96101563 7.64453125 13.42578125 C4.21798969 9.47320346 0.75553321 5.64172918 -3 2 C-2.01 1.34 -1.02 0.68 0 0 Z " fill="#F6B8AF" transform="translate(65,75)"/>
<path d="M0 0 C0.66 0.66 1.32 1.32 2 2 C1.10794357 10.7012062 -4.64009503 18.40602756 -10 25 C-10.66 24.67 -11.32 24.34 -12 24 C-10.4643201 20.72235484 -8.57750788 17.81551175 -6.5625 14.8125 C-3.43730933 9.96845446 -1.54348349 5.53838193 0 0 Z " fill="#201815" transform="translate(214,176)"/>
<path d="M0 0 C0.33 0 0.66 0 1 0 C2.93723129 10.31106976 2.80716409 20.16482611 -1 30 C-0.01 30 0.98 30 2 30 C1.67 30.99 1.34 31.98 1 33 C-0.65 32.34 -2.3 31.68 -4 31 C-3.68712036 30.22668335 -3.68712036 30.22668335 -3.36791992 29.43774414 C-0.99497858 23.06612626 -0.46910522 17.19837093 -0.3125 10.4375 C-0.27833984 9.42880859 -0.24417969 8.42011719 -0.20898438 7.38085938 C-0.12736719 4.92068432 -0.05794324 2.46082691 0 0 Z " fill="#DA3423" transform="translate(217,156)"/>
<path d="M0 0 C0.99 0.495 0.99 0.495 2 1 C3.91127834 6.93431875 4.25620866 12.30291421 4.125 18.5 C4.11597656 19.32242188 4.10695312 20.14484375 4.09765625 20.9921875 C4.07436865 22.99492083 4.03850959 24.99750154 4 27 C3.34 27 2.68 27 2 27 C1.93941406 25.97261719 1.87882813 24.94523437 1.81640625 23.88671875 C1.33717129 15.91039762 0.79190582 7.95275637 0 0 Z " fill="#160907" transform="translate(213,151)"/>
<path d="M0 0 C0.33 0 0.66 0 1 0 C0.63194444 7.23842593 0.63194444 7.23842593 -2.4375 10.9375 C-6.1861798 13.95473008 -8.16691513 14.18060967 -12.9375 14.25 C-13.99839844 14.27578125 -15.05929688 14.3015625 -16.15234375 14.328125 C-19 14 -19 14 -20.87890625 12.484375 C-21.43384766 11.74960938 -21.43384766 11.74960938 -22 11 C-21.319375 11.165 -20.63875 11.33 -19.9375 11.5 C-15.26386262 12.29551275 -11.38956542 12.40869571 -6.8125 11.0625 C-2.83171725 8.14325932 -1.62459611 4.55842556 0 0 Z " fill="#1A1112" transform="translate(141,209)"/>
<path d="M0 0 C2.96865509 2.54456151 4.3619751 5.48994665 6 9 C5.34 9.66 4.68 10.32 4 11 C-0.66154042 9.50164772 -1.86610751 6.11536409 -4 2 C-3.01 2 -2.02 2 -1 2 C-0.67 1.34 -0.34 0.68 0 0 Z " fill="#EE6326" transform="translate(41,185)"/>
<path d="M0 0 C0.33 0.66 0.66 1.32 1 2 C1.66 2.33 2.32 2.66 3 3 C2.40832031 3.44730469 1.81664063 3.89460938 1.20703125 4.35546875 C-3.14882567 7.68809011 -7.24356546 11.00121485 -11 15 C-11.33 14.34 -11.66 13.68 -12 13 C-8.13635705 8.51282966 -4.25209792 4.12324647 0 0 Z " fill="#FCE3CC" transform="translate(77,86)"/>
<path d="M0 0 C3.82219312 2.54812875 3.95116439 4.27650924 5.1875 8.625 C5.53167969 9.81351563 5.87585938 11.00203125 6.23046875 12.2265625 C6.61138672 13.59941406 6.61138672 13.59941406 7 15 C6.01 15 5.02 15 4 15 C-0.59225513 5.77448747 -0.59225513 5.77448747 0 0 Z " fill="#FBC5B8" transform="translate(59,84)"/>
<path d="M0 0 C0.66 1.32 1.32 2.64 2 4 C-0.64 6.31 -3.28 8.62 -6 11 C-6.99 10.34 -7.98 9.68 -9 9 C-6.03 6.03 -3.06 3.06 0 0 Z " fill="#D97B2D" transform="translate(202,202)"/>
<path d="M0 0 C0.33 0 0.66 0 1 0 C1.57682463 9.01128257 1.49238382 15.58528184 -4 23 C-4.66 22.34 -5.32 21.68 -6 21 C-5.34 21 -4.68 21 -4 21 C-3.87625 20.175 -3.7525 19.35 -3.625 18.5 C-3.17118356 15.95862792 -2.65004204 13.55109376 -2 11.0625 C-1.05136908 7.38832502 -0.47050375 3.76403001 0 0 Z " fill="#F9CCC1" transform="translate(196,76)"/>
<path d="M0 0 C0.66 1.32 1.32 2.64 2 4 C2.66 4.33 3.32 4.66 4 5 C3.71935082 7.31386295 3.42518311 9.62609008 3.125 11.9375 C2.96257812 13.22527344 2.80015625 14.51304688 2.6328125 15.83984375 C2.42398438 16.88269531 2.21515625 17.92554688 2 19 C1.34 19.33 0.68 19.66 0 20 C0 13.4 0 6.8 0 0 Z " fill="#3F170E" transform="translate(214,62)"/>
<path d="M0 0 C2 3 2 3 1.5390625 5.91796875 C1.23742188 6.99691406 0.93578125 8.07585938 0.625 9.1875 C0.18027344 10.81751953 0.18027344 10.81751953 -0.2734375 12.48046875 C-0.51320313 13.31191406 -0.75296875 14.14335938 -1 15 C-1.66 14.34 -2.32 13.68 -3 13 C-3.99 13.66 -4.98 14.32 -6 15 C-4.36041242 9.76727367 -2.61047965 4.84803364 0 0 Z " fill="#2E1009" transform="translate(43,49)"/>
<path d="M0 0 C-2.5 5 -2.5 5 -5 10 C-5.33 10 -5.66 10 -6 10 C-6 7.69 -6 5.38 -6 3 C-9.3 3 -12.6 3 -16 3 C-16 2.67 -16 2.34 -16 2 C-15.15695313 1.93941406 -14.31390625 1.87882813 -13.4453125 1.81640625 C-12.34960938 1.73261719 -11.25390625 1.64882812 -10.125 1.5625 C-9.03445312 1.48128906 -7.94390625 1.40007812 -6.8203125 1.31640625 C-4.26398303 1.02961583 -2.50524575 0 0 0 Z " fill="#333434" transform="translate(147,199)"/>
<path d="M0 0 C0 0.33 0 0.66 0 1 C-1.65 1.33 -3.3 1.66 -5 2 C-5 2.33 -5 2.66 -5 3 C-13.03571429 5.27678571 -13.03571429 5.27678571 -17 4 C-17 3.34 -17 2.68 -17 2 C-11.19233704 0.4943096 -6.0018137 -0.21824777 0 0 Z " fill="#42160C" transform="translate(117,74)"/>
<path d="M0 0 C3.63 0 7.26 0 11 0 C11 0.99 11 1.98 11 3 C7.37 3 3.74 3 0 3 C0 2.01 0 1.02 0 0 Z " fill="#A91D39" transform="translate(116,204)"/>
<path d="M0 0 C0.33 0 0.66 0 1 0 C1.33 2.97 1.66 5.94 2 9 C2.33 9 2.66 9 3 9 C2.39174965 13.34464536 1.73832608 17.67551867 1 22 C0.67 22 0.34 22 0 22 C0 14.74 0 7.48 0 0 Z " fill="#2E0908" transform="translate(16,116)"/>
<path d="M0 0 C0.66 0.66 1.32 1.32 2 2 C-1.61973402 3.31626692 -4.09567131 4 -8 4 C-8 3.34 -8 2.68 -8 2 C-8.66 1.67 -9.32 1.34 -10 1 C-3.51394422 -1.5059761 -3.51394422 -1.5059761 0 0 Z " fill="#300908" transform="translate(100,21)"/>
<path d="M0 0 C-1.39750048 3.15835107 -3.05198234 5.32272825 -5.5 7.75 C-6.41265625 8.67039063 -6.41265625 8.67039063 -7.34375 9.609375 C-9 11 -9 11 -11 11 C-9.60249952 7.84164893 -7.94801766 5.67727175 -5.5 3.25 C-4.8915625 2.63640625 -4.283125 2.0228125 -3.65625 1.390625 C-2 0 -2 0 0 0 Z " fill="#120C0A" transform="translate(203,200)"/>
<path d="M0 0 C0.66 0 1.32 0 2 0 C2.99 3.63 3.98 7.26 5 11 C4.01 11 3.02 11 2 11 C1.01 7.7 0.02 4.4 -1 1 C-0.67 0.67 -0.34 0.34 0 0 Z " fill="#36150C" transform="translate(210,141)"/>
<path d="M0 0 C0 0.66 0 1.32 0 2 C-3.61973402 3.31626692 -6.09567131 4 -10 4 C-10 3.34 -10 2.68 -10 2 C-10.66 1.67 -11.32 1.34 -12 1 C-7.58774263 -0.47075246 -4.51718381 -1.36884358 0 0 Z " fill="#2F2722" transform="translate(158,231)"/>
<path d="M0 0 C4.2742558 1.5830577 6.26531794 4.50568404 9 8 C8.01 8.33 7.02 8.66 6 9 C4.99105628 8.07213211 3.99309093 7.13231567 3 6.1875 C2.1646875 5.40439453 2.1646875 5.40439453 1.3125 4.60546875 C0 3 0 3 0 0 Z " fill="#3C2D25" transform="translate(54,201)"/>
<path d="M0 0 C1.32 0.33 2.64 0.66 4 1 C3.43628586 4.26954202 2.50037734 5.82575883 0 8 C-1.125 5.6875 -1.125 5.6875 -2 3 C-1.34 2.01 -0.68 1.02 0 0 Z " fill="#EA621F" transform="translate(213,187)"/>
<path d="M0 0 C3.13816827 1.49776213 5.90125227 3.32500158 8.75 5.3125 C7.76 5.9725 6.77 6.6325 5.75 7.3125 C5.27949219 6.97476563 4.80898437 6.63703125 4.32421875 6.2890625 C3.70160156 5.84304687 3.07898438 5.39703125 2.4375 4.9375 C1.82261719 4.49664062 1.20773438 4.05578125 0.57421875 3.6015625 C-1.0152392 2.47839093 -2.63062171 1.39208553 -4.25 0.3125 C-2.25 -0.6875 -2.25 -0.6875 0 0 Z " fill="#240F08" transform="translate(62.25,47.6875)"/>
<path d="M0 0 C3.43950364 0.61198376 5.51564485 1.92058847 8.25 4.0625 C8.95640625 4.61035156 9.6628125 5.15820312 10.390625 5.72265625 C11.18726562 6.35494141 11.18726562 6.35494141 12 7 C11.01 7.66 10.02 8.32 9 9 C7.49704815 7.69088122 5.99770689 6.37761608 4.5 5.0625 C3.6646875 4.33160156 2.829375 3.60070312 1.96875 2.84765625 C1.3190625 2.23792969 0.669375 1.62820312 0 1 C0 0.67 0 0.34 0 0 Z " fill="#241C16" transform="translate(61,209)"/>
<path d="M0 0 C0.99 0.33 1.98 0.66 3 1 C2.01 4.96 1.02 8.92 0 13 C-2.58772586 9.1184112 -1.87719799 7.46573523 -1 3 C-0.67 2.01 -0.34 1.02 0 0 Z " fill="#36170B" transform="translate(43,143)"/>
<path d="M0 0 C0.66 0 1.32 0 2 0 C2.70226141 1.24176695 3.38629109 2.49385599 4.0625 3.75 C4.44535156 4.44609375 4.82820312 5.1421875 5.22265625 5.859375 C6.1312406 8.36140628 5.88336837 9.5332355 5 12 C2.32522069 9.32522069 1.3535886 6.507025 0 3 C0 2.01 0 1.02 0 0 Z " fill="#220A06" transform="translate(205,130)"/>
<path d="M0 0 C4.571279 0.54855348 8.67435795 1.41744803 13 3 C13 3.66 13 4.32 13 5 C11.3934324 4.74379316 9.7897517 4.46944129 8.1875 4.1875 C7.29417969 4.03667969 6.40085937 3.88585937 5.48046875 3.73046875 C2.81678744 2.94604607 1.74309678 2.11372201 0 0 Z " fill="#0E0B0A" transform="translate(92,228)"/>
<path d="M0 0 C1.85776765 3.13498292 2.20140476 5.37471432 2 9 C1.34 9 0.68 9 0 9 C-0.33 9.99 -0.66 10.98 -1 12 C-1.92470553 7.28400182 -2.22923777 4.32734391 0 0 Z " fill="#350B0A" transform="translate(236,100)"/>
<path d="M0 0 C3 0 3 0 5.1875 2 C5.785625 2.66 6.38375 3.32 7 4 C6.01 4.99 5.02 5.98 4 7 C0 2.25 0 2.25 0 0 Z " fill="#E67228" transform="translate(43,194)"/>
<path d="M0 0 C3.81287042 1.44626119 5.32707177 3.30194812 7 7 C6.6875 9.3125 6.6875 9.3125 6 11 C1.33333333 4 1.33333333 4 0 0 Z " fill="#210D09" transform="translate(208,47)"/>
<path d="M0 0 C0.33 0 0.66 0 1 0 C1.33 5.61 1.66 11.22 2 17 C-1 14 -1 14 -1.07421875 10.64453125 C-0.94660156 9.37996094 -0.81898437 8.11539063 -0.6875 6.8125 C-0.56761719 5.54019531 -0.44773438 4.26789063 -0.32421875 2.95703125 C-0.21722656 1.98121094 -0.11023437 1.00539062 0 0 Z " fill="#210F0C" transform="translate(40,165)"/>
<path d="M0 0 C0.66 0 1.32 0 2 0 C4.09230769 4.43076923 4.09230769 4.43076923 3.625 7.3125 C3.41875 7.869375 3.2125 8.42625 3 9 C2.34 8.67 1.68 8.34 1 8 C0.40644386 5.35139573 0.25790731 2.70802678 0 0 Z " fill="#39130C" transform="translate(49,110)"/>
<path d="M0 0 C0.66 0.33 1.32 0.66 2 1 C1.67 1.99 1.34 2.98 1 4 C-2.0625 5.1875 -2.0625 5.1875 -5 6 C-5.33 5.01 -5.66 4.02 -6 3 C-4.03533587 1.93224776 -2.03144641 0.93446535 0 0 Z " fill="#230B06" transform="translate(179,223)"/>
<path d="M0 0 C2.2477975 2.05233685 3.0022242 3.00667261 4 6 C3.01 5.67 2.02 5.34 1 5 C0.01 5.33 -0.98 5.66 -2 6 C-2.66 4.68 -3.32 3.36 -4 2 C-3.01 2 -2.02 2 -1 2 C-0.67 1.34 -0.34 0.68 0 0 Z " fill="#E44C25" transform="translate(41,185)"/>
<path d="M0 0 C0.66 0.66 1.32 1.32 2 2 C1.63723355 4.82957829 0.90305236 7.29084291 0 10 C-0.99 9.67 -1.98 9.34 -3 9 C-2.01 6.03 -1.02 3.06 0 0 Z " fill="#2F2424" transform="translate(214,176)"/>
<path d="M0 0 C0.33 0 0.66 0 1 0 C0.67 3.3 0.34 6.6 0 10 C-0.99 9.34 -1.98 8.68 -3 8 C-1.125 1.125 -1.125 1.125 0 0 Z " fill="#0E0202" transform="translate(235,152)"/>
<path d="M0 0 C0.33 0 0.66 0 1 0 C1.22226864 1.76913824 1.42733873 3.54044371 1.625 5.3125 C1.74101563 6.29863281 1.85703125 7.28476563 1.9765625 8.30078125 C2 11 2 11 0 14 C-1.33257403 4.58997722 -1.33257403 4.58997722 0 0 Z " fill="#34150D" transform="translate(42,79)"/>
<path d="M0 0 C1.485 0.99 1.485 0.99 3 2 C3 2.66 3 3.32 3 4 C2.34 4 1.68 4 1 4 C1.061875 5.918125 1.061875 5.918125 1.125 7.875 C1.1953125 10.0546875 1.1953125 10.0546875 1 12 C0.34 12.66 -0.32 13.32 -1 14 C-0.67 9.38 -0.34 4.76 0 0 Z " fill="#E13324" transform="translate(217,67)"/>
<path d="M0 0 C0.99 0.33 1.98 0.66 3 1 C2.25 2.9375 2.25 2.9375 1 5 C-1.125 5.75 -1.125 5.75 -3 6 C-1.125 1.125 -1.125 1.125 0 0 Z " fill="#EB8226" transform="translate(205,199)"/>
<path d="M0 0 C0 3.96 0 7.92 0 12 C-0.33 12 -0.66 12 -1 12 C-1 9.36 -1 6.72 -1 4 C-2.32 4.33 -3.64 4.66 -5 5 C-5 4.34 -5 3.68 -5 3 C-1.42307692 0 -1.42307692 0 0 0 Z " fill="#050101" transform="translate(41,61)"/>
<path d="M0 0 C0.99 0.33 1.98 0.66 3 1 C1.35 2.65 -0.3 4.3 -2 6 C-2.99 5.34 -3.98 4.68 -5 4 C-2.6875 1.9375 -2.6875 1.9375 0 0 Z " fill="#291D16" transform="translate(190,210)"/>
<path d="M0 0 C1.64826111 2.96687001 2.44271087 5.65626525 3 9 C2.01 9.495 2.01 9.495 1 10 C-1.42857143 3.71428571 -1.42857143 3.71428571 0 0 Z " fill="#42150D" transform="translate(203,121)"/>
<path d="M0 0 C2.05078125 0.03255208 4.1015625 0.06510417 6.15234375 0.09765625 C6.15234375 0.42765625 6.15234375 0.75765625 6.15234375 1.09765625 C5.07984375 1.38640625 4.00734375 1.67515625 2.90234375 1.97265625 C0.05834011 2.82585734 -2.28274608 3.66130655 -4.84765625 5.09765625 C-2.44354091 0.12915121 -2.44354091 0.12915121 0 0 Z " fill="#DE853A" transform="translate(49.84765625,46.90234375)"/>
<path d="M0 0 C0.33 0 0.66 0 1 0 C1 1.65 1 3.3 1 5 C0.34 5 -0.32 5 -1 5 C-2.37310707 6.29233607 -3.71034824 7.62437146 -5 9 C-3.75471468 5.55151758 -2.38532951 2.80016942 0 0 Z " fill="#CB3021" transform="translate(38,67)"/>
<path d="M0 0 C0.99 0.33 1.98 0.66 3 1 C2.34 3.31 1.68 5.62 1 8 C0.34 7.67 -0.32 7.34 -1 7 C-0.67 4.69 -0.34 2.38 0 0 Z " fill="#35150C" transform="translate(209,96)"/>
<path d="M0 0 C0.99 0.33 1.98 0.66 3 1 C1.35 2.65 -0.3 4.3 -2 6 C-2.33 5.34 -2.66 4.68 -3 4 C-2.01 2.68 -1.02 1.36 0 0 Z " fill="#2E1109" transform="translate(166,70)"/>
<path d="M0 0 C1.32 0 2.64 0 4 0 C3.67 0.99 3.34 1.98 3 3 C1.02 3.33 -0.96 3.66 -3 4 C-1.75 2 -1.75 2 0 0 Z " fill="#0B0202" transform="translate(88,23)"/>
</svg>
