/* XPM */
static char *_734396491646[] = {
/* columns rows colors chars-per-pixel */
"16 16 159 2 ",
"   c #4A2709",
".  c #4D2A09",
"X  c #94160C",
"o  c #98170A",
"O  c #9A170F",
"+  c #9E140D",
"@  c #9F140D",
"#  c #9C180B",
"$  c #941712",
"%  c #901615",
"&  c #9B1A12",
"*  c #9F1D18",
"=  c #A81B14",
"-  c #AC1F17",
";  c #A21D18",
":  c #AF1F18",
">  c #B31E17",
",  c #BC1F18",
"<  c #BC1F19",
"1  c #952215",
"2  c #932118",
"3  c #AF2B13",
"4  c #AD2A15",
"5  c #A42018",
"6  c #A62018",
"7  c #AE2118",
"8  c #AF2118",
"9  c #AE291D",
"0  c #BF2017",
"q  c #B02218",
"w  c #B82018",
"e  c #B82118",
"r  c #BA2118",
"t  c #B82219",
"y  c #B02D1D",
"u  c #93332E",
"i  c #93352F",
"p  c #A43F2E",
"a  c #CC2615",
"s  c #CD2813",
"d  c #DC2617",
"f  c #DE291A",
"g  c #DB2D19",
"h  c #DB2D1B",
"j  c #DD301B",
"k  c #DE301C",
"l  c #E82214",
"z  c #EA2316",
"x  c #E2271A",
"c  c #EC2519",
"v  c #EF2418",
"b  c #EE241A",
"n  c #E3291C",
"m  c #F22719",
"M  c #F52419",
"N  c #F62419",
"B  c #F22B1C",
"V  c #F32B1C",
"C  c #F9291B",
"Z  c #FA291B",
"A  c #FA2A1B",
"S  c #FB291C",
"D  c #F82B1D",
"F  c #F82C1C",
"G  c #C73A28",
"H  c #C53B2A",
"J  c #A05818",
"K  c #A15A1A",
"L  c #A34334",
"P  c #B3563D",
"I  c #D24A1D",
"U  c #D3491E",
"Y  c #D44C1F",
"T  c #D54C1F",
"R  c #D25728",
"E  c #D35629",
"W  c #DE6625",
"Q  c #DD6824",
"!  c #D56A2C",
"~  c #D76C2D",
"^  c #E37E22",
"/  c #E77F24",
"(  c #E87F26",
")  c #B15742",
"_  c #AB6965",
"`  c #AC6965",
"'  c #C2737F",
"]  c #E68122",
"[  c #E7862B",
"{  c #E5852C",
"}  c #EF8A2C",
"|  c #F08121",
" . c #F08321",
".. c #FF8921",
"X. c #FF8A22",
"o. c #F08B2C",
"O. c #FF912B",
"+. c #FF912C",
"@. c #FF902D",
"#. c #FF922D",
"$. c #FF952C",
"%. c #FF962D",
"&. c #FF9233",
"*. c #FF9534",
"=. c #FF993C",
"-. c #C58E5C",
";. c #C58F5F",
":. c #DD8454",
">. c #DE885A",
",. c #FE9C43",
"<. c #FE9C48",
"1. c #FEA457",
"2. c #FEA759",
"3. c #F8A75C",
"4. c #F8A95B",
"5. c #FFAE69",
"6. c #FFAF6A",
"7. c #FFB772",
"8. c #FFB773",
"9. c #C57681",
"0. c #7C8384",
"q. c #7F8687",
"w. c #8D8986",
"e. c #8E8B87",
"r. c #C3A49E",
"t. c #EBB086",
"y. c #EEB692",
"u. c #C4AAA4",
"i. c #DDA5AC",
"p. c #DDA7AE",
"a. c #F7C18C",
"s. c #F8C08D",
"d. c #F5C696",
"f. c #F3C498",
"g. c #F2C598",
"h. c #F7CA9A",
"j. c #F7CA9D",
"k. c #F9CB9A",
"l. c #FFD09C",
"z. c #FFCFA3",
"x. c #FFD0A2",
"c. c #FFD1A2",
"v. c #FFD5A2",
"b. c #FDC5BD",
"n. c #FEC4BE",
"m. c #FED6B2",
"M. c #DFD8D3",
"N. c #E0D9D6",
"B. c #E3E3DD",
"V. c #FFEBD9",
"C. c #FFEDDB",
"Z. c #E6E7E2",
"A. c #E7EBEB",
"S. c #E7EDEC",
"D. c #F7FAFA",
"F. c #F9FBFB",
"G. c #FFFFFE",
"H. c white",
"J. c None",
/* pixels */
"J.J.J.J.J.J.J.J.J.J.J.J.J.J.J.J.",
"J.J.J.J.J.5 7 t t 8 * J.J.J.J.J.",
"J.J.J.$ 0 n V D F B x < % J.J.J.",
"J.J.1 ! U m A S Z C v I ~ 2 J.J.",
"J.J.3 j.h.E f k j d R k.d.4 J.J.",
"J.6 s y.b.3.( o.} / 4.n.t.a ; J.",
"J.q l >.6.X.#.O.@.+...5.:.z : J.",
"J.r M Y %.c.1.<.,.2.x.$.T N e J.",
"J., c Q { ;.=.m.z.=.-.[ W b w J.",
"J.> g  .^   K v.l.J . ] | h - J.",
"J.= G a.8.&.f.e.w.g.*.7.s.H & J.",
"J.J.9 N.H.V.G.q.0.G.C.H.M.y J.J.",
"J.J.@ ) Z.H.D.' 9.F.H.B.P # J.J.",
"J.J.J.+ L u.S.p.i.A.r.p o J.J.J.",
"J.J.J.J.J.O i ` _ u X J.J.J.J.J.",
"J.J.J.J.J.J.J.J.J.J.J.J.J.J.J.J."
};
