<?xml version="1.0" encoding="UTF-8"?>
<svg version="1.1" xmlns="http://www.w3.org/2000/svg" width="64" height="64">
<path d="M0 0 C7.2922682 5.06229515 13.13341654 12.17615092 15 21 C15.96388518 31.20235387 14.29879293 39.29509904 7.75 47.3125 C1.22727999 54.21153078 -6.19479992 57.9077899 -15.75 58.375 C-24.51089397 58.14865472 -31.969529 54.9658913 -38.28125 48.92578125 C-44.91236183 41.49592186 -47.51762752 34.02900209 -47.30859375 24.09375 C-46.44764009 15.46241708 -42.3425838 8.77651141 -36 3 C-25.13606651 -5.25827052 -12.08889448 -6.91085199 0 0 Z " fill="#FA9132" transform="translate(48,5)"/>
<path d="M0 0 C7.2922682 5.06229515 13.13341654 12.17615092 15 21 C15.96388518 31.20235387 14.29879293 39.29509904 7.75 47.3125 C1.22727999 54.21153078 -6.19479992 57.9077899 -15.75 58.375 C-24.51089397 58.14865472 -31.969529 54.9658913 -38.28125 48.92578125 C-44.91236183 41.49592186 -47.51762752 34.02900209 -47.30859375 24.09375 C-46.44764009 15.46241708 -42.3425838 8.77651141 -36 3 C-25.13606651 -5.25827052 -12.08889448 -6.91085199 0 0 Z M-36 7 C-37.45335344 8.22912917 -37.45335344 8.22912917 -37.1875 11.9375 C-37.17028312 15.53582866 -36.68865799 18.74864596 -35.875 22.25 C-34.96911849 26.34533933 -35.22746162 28.15950018 -37 32 C-37.79384855 36.13763488 -37.86357181 39.50909183 -35.71484375 43.21875 C-30.81109353 49.20601678 -25.58251839 51.98495312 -18.25 54.0625 C-11.50239308 54.59485558 -4.88454631 51.23491739 0.32421875 47.19921875 C3.67739984 43.80522816 5.4096923 41.14604895 5.5625 36.3125 C5.41434337 33.69825236 4.9876861 31.97250336 3.91015625 29.56640625 C2.80726203 26.45652857 3.13522983 24.81240479 3.875 21.625 C5.58504602 14.20774982 5.58504602 14.20774982 4 7 C1.7144047 7.05111395 1.7144047 7.05111395 -1 8 C-2.299375 9.48693359 -2.299375 9.48693359 -3.625 11.00390625 C-6.74514392 14.21720313 -9.11463065 14.78466618 -13.52319336 14.8828125 C-14.29928955 14.85960937 -15.07538574 14.83640625 -15.875 14.8125 C-16.67494385 14.80347656 -17.4748877 14.79445313 -18.29907227 14.78515625 C-23.16999425 14.56173319 -26.22814609 13.90428555 -29.9375 10.5 C-30.48277344 9.8503125 -31.02804688 9.200625 -31.58984375 8.53125 C-32.05519531 8.0259375 -32.52054688 7.520625 -33 7 C-33.99 7 -34.98 7 -36 7 Z " fill="#881E16" transform="translate(48,5)"/>
<path d="M0 0 C10.92116855 -0.70814493 18.26794918 0.28698043 26.8125 7.3125 C33.778157 15.87030717 33.778157 15.87030717 34.3125 21 C34.209375 21.66 34.10625 22.32 34 23 C33.34 22.01 32.68 21.02 32 20 C32 21.69417254 32.03167223 23.38829941 32.0703125 25.08203125 C32.08835938 26.31308594 32.10640625 27.54414063 32.125 28.8125 C32.14820313 30.03582031 32.17140625 31.25914063 32.1953125 32.51953125 C32.00865703 35.84573165 31.43816393 38.02741707 30 41 C28.5393715 38.35261084 28 37.10551666 28 34 C27.34 34 26.68 34 26 34 C24.11652284 30.12143221 23.88611492 27.92529254 24.875 23.75 C25.9454147 18.69297671 26.16915174 14.15912805 26 9 C22.56704518 10.51688701 20.28218922 11.66413348 17.84375 14.56640625 C13.97245566 17.87934083 11.13949864 17.84360671 6.1875 17.75 C5.38521973 17.74548828 4.58293945 17.74097656 3.75634766 17.73632812 C-1.17797182 17.53899562 -4.30912448 16.88272208 -8.125 13.5 C-9.8828125 11.53125 -9.8828125 11.53125 -11 10 C-10 7 -10 7 -8.42578125 5.83203125 C-1.25089822 2.37058121 5.10420547 2.6933672 13 3 C8.71 2.34 4.42 1.68 0 1 C0 0.67 0 0.34 0 0 Z " fill="#E62B1B" transform="translate(26,3)"/>
<path d="M0 0 C3.52512236 0.89330586 5.46452224 2.96842849 8.00390625 5.5078125 C8.99390625 4.8478125 9.98390625 4.1878125 11.00390625 3.5078125 C13.046875 3.3125 13.046875 3.3125 15.19140625 3.3828125 C17.07859375 3.4446875 17.07859375 3.4446875 19.00390625 3.5078125 C18.34703331 8.75379774 16.35756722 10.60598233 12.3828125 13.85546875 C7.42616994 17.29825989 2.04276708 19.99125257 -4.12109375 19.5078125 C-12.33875364 17.80475623 -18.37133131 13.54612284 -22.99609375 6.5078125 C-22.99609375 5.5178125 -22.99609375 4.5278125 -22.99609375 3.5078125 C-18.4480374 3.32945735 -15.11666835 3.50995815 -10.99609375 5.5078125 C-10.33609375 4.6828125 -9.67609375 3.8578125 -8.99609375 3.0078125 C-5.83134654 0.37052316 -4.11312874 -0.23414395 0 0 Z " fill="#F8F7F7" transform="translate(33.99609375,39.4921875)"/>
<path d="M0 0 C2.19516223 1.54978454 4.04212531 3.14517135 6 5 C2.00125986 5 0.16526371 3.29449799 -3.0625 1.09375 C-5.06459491 -0.24579718 -5.06459491 -0.24579718 -8 0 C-5.525 0.99 -5.525 0.99 -3 2 C-6 3 -6 3 -9 2 C-17.61882508 1.32423094 -24.45380034 1.67435417 -32 6 C-32.72445312 6.2784375 -33.44890625 6.556875 -34.1953125 6.84375 C-36.21867952 7.85829298 -36.21867952 7.85829298 -36.609375 10.1640625 C-36.67898437 11.38222656 -36.67898437 11.38222656 -36.75 12.625 C-36.80671875 13.44226563 -36.8634375 14.25953125 -36.921875 15.1015625 C-36.94765625 15.72804688 -36.9734375 16.35453125 -37 17 C-37.66 16.01 -38.32 15.02 -39 14 C-41.15758273 19.24955168 -41.24042211 23.80810284 -41.125 29.375 C-41.11146484 30.62216797 -41.11146484 30.62216797 -41.09765625 31.89453125 C-41.0742622 33.92981337 -41.03839725 35.96494564 -41 38 C-43.1385485 35.8614515 -43.42655063 34.86724686 -44 32 C-43.41630658 39.78257889 -39.39381292 44.99179983 -33.6875 50 C-32.46706476 51.01063768 -31.24093525 52.01464199 -30 53 C-30.99 53.495 -30.99 53.495 -32 54 C-39.10963278 48.35463402 -45.06416454 42.15122216 -47 33 C-47.96388518 22.79764613 -46.29879293 14.70490096 -39.75 6.6875 C-29.01395684 -4.69224596 -13.90568825 -7.71716387 0 0 Z " fill="#5C120E" transform="translate(48,5)"/>
<path d="M0 0 C5.73929821 4.78274851 8.42058718 10.55783501 9.38671875 17.96484375 C9.72570584 27.04736003 7.5122447 34.25803566 1.75 41.3125 C-1.60964718 44.87488451 -5.40384929 48.17153135 -10 50 C-10.99 49.67 -11.98 49.34 -13 49 C-12.43152344 48.731875 -11.86304688 48.46375 -11.27734375 48.1875 C-2.78471507 43.87738461 2.96203696 38.11388912 6 29 C6 28.01 6 27.02 6 26 C5.73445313 26.71027344 5.46890625 27.42054687 5.1953125 28.15234375 C4.66550781 29.53099609 4.66550781 29.53099609 4.125 30.9375 C3.77695312 31.85402344 3.42890625 32.77054688 3.0703125 33.71484375 C2 36 2 36 0 37 C0.495 35.80375 0.99 34.6075 1.5 33.375 C4.23693207 25.22875409 3.56957095 16.3415101 2 8 C2.99 9.32 3.98 10.64 5 12 C3.83236367 8.04800013 2.53585145 5.2274473 0 2 C0 1.34 0 0.68 0 0 Z " fill="#420D0A" transform="translate(54,11)"/>
<path d="M0 0 C0.33 1.32 0.66 2.64 1 4 C1.66 4 2.32 4 3 4 C3.36237263 5.62318979 3.71465157 7.2486358 4.0625 8.875 C4.25972656 9.77992187 4.45695313 10.68484375 4.66015625 11.6171875 C5 14 5 14 4 16 C3.34 16 2.68 16 2 16 C1.34 19.3 0.68 22.6 0 26 C-2 25 -2 25 -3 22 C-3.93268379 6.71833481 -3.93268379 6.71833481 0 0 Z " fill="#E5291A" transform="translate(9,18)"/>
<path d="M0 0 C10.92116855 -0.70814493 18.26794918 0.28698043 26.8125 7.3125 C33.778157 15.87030717 33.778157 15.87030717 34.3125 21 C34.209375 21.66 34.10625 22.32 34 23 C32.25372522 20.38058783 31.61277612 18.96175123 31 16 C30.34 16 29.68 16 29 16 C28.01 19.3 27.02 22.6 26 26 C25.022952 22.091808 25.02532443 21.52227584 26 18 C26.06548492 16.41788427 26.08578381 14.83329919 26.0625 13.25 C26.05347656 12.45078125 26.04445313 11.6515625 26.03515625 10.828125 C26.02355469 10.22484375 26.01195313 9.6215625 26 9 C25.401875 8.87625 24.80375 8.7525 24.1875 8.625 C22 8 22 8 19 6 C19 5.34 19 4.68 19 4 C12.66226532 2.46667709 6.49850211 1.51553879 0 1 C0 0.67 0 0.34 0 0 Z " fill="#C82B1E" transform="translate(26,3)"/>
<path d="M0 0 C3.39672268 0.45725113 5.24234171 1.7959627 7.75 4.0625 C8.67039062 4.88427734 8.67039062 4.88427734 9.609375 5.72265625 C10.29773438 6.35494141 10.29773438 6.35494141 11 7 C10.67 7.99 10.34 8.98 10 10 C7.03824877 9.38722388 5.61941217 8.74627478 3 7 C3.09539063 7.62648438 3.19078125 8.25296875 3.2890625 8.8984375 C3.39992188 9.71570312 3.51078125 10.53296875 3.625 11.375 C3.74101562 12.18710937 3.85703125 12.99921875 3.9765625 13.8359375 C3.98429688 14.55007812 3.99203125 15.26421875 4 16 C3.34 16.66 2.68 17.32 2 18 C-0.53155241 12.19852572 -1.72302181 7.35424941 -1 1 C-0.67 0.67 -0.34 0.34 0 0 Z " fill="#F39841" transform="translate(12,12)"/>
<path d="M0 0 C0.33 0 0.66 0 1 0 C1.08636719 0.97839844 1.17273438 1.95679687 1.26171875 2.96484375 C2.48458357 15.47265035 2.48458357 15.47265035 9.66015625 25.359375 C11.07833052 26.28470857 12.53608006 27.14888375 14 28 C14 28.66 14 29.32 14 30 C14.61875 30.268125 15.2375 30.53625 15.875 30.8125 C18 32 18 32 20 35 C15.07844679 34.57815258 13.23195858 32.61671555 10 29 C9.12601563 28.07767578 9.12601563 28.07767578 8.234375 27.13671875 C0.04482781 18.27617925 -0.44532525 11.89183365 0 0 Z " fill="#CC241B" transform="translate(3,26)"/>
<path d="M0 0 C2.57611541 3.86417312 2.27973178 5.99781985 1.7421875 10.48828125 C0.27335581 15.45911692 -3.7176868 17.70712894 -8.02734375 20.1484375 C-10.72683627 21.31376298 -13.09616651 21.13199243 -16 21 C-14.3893266 19.92621773 -12.76837917 18.86445188 -11.09765625 17.88671875 C-6.92431905 15.4275738 -3.4481909 13.30881598 -1 9 C-0.40889212 6.00404295 -0.132832 3.0484943 0 0 Z " fill="#934026" transform="translate(53,37)"/>
<path d="M0 0 C0.99043317 2.97129952 0.95622275 4.23608993 0.6875 7.25 C0.61746657 11.15277181 1.32008533 12.98666635 3.875 15.9375 C4.89515436 16.97983163 5.93477896 18.00376996 7 19 C7.66 19.66 8.32 20.32 9 21 C4.01317305 20.23279585 0.33431434 17.41518187 -3.0625 13.8125 C-4.51934709 9.44195874 -2.7720525 6.09988511 -1 2 C-0.67 1.34 -0.34 0.68 0 0 Z " fill="#8D3D28" transform="translate(11,34)"/>
<path d="M0 0 C0.33 0 0.66 0 1 0 C1.62933173 8.92252545 1.09233446 15.48411827 -4 23 C-6.3125 25.625 -6.3125 25.625 -8 27 C-8.66 26.67 -9.32 26.34 -10 26 C-9.60167969 25.5153125 -9.20335937 25.030625 -8.79296875 24.53125 C-2.57613146 16.66566511 -0.59175607 9.95782632 0 0 Z " fill="#EB2B1E" transform="translate(60,27)"/>
<path d="M0 0 C2.64 0 5.28 0 8 0 C7.67 1.65 7.34 3.3 7 5 C4.625 5.625 4.625 5.625 2 6 C1.34 5.34 0.68 4.68 0 4 C0 2.68 0 1.36 0 0 Z " fill="#AD4451" transform="translate(28,50)"/>
<path d="M0 0 C0.66 0 1.32 0 2 0 C3.76462683 3.08809695 4 4.23312136 4 8 C2.02 8 0.04 8 -2 8 C-1.125 1.125 -1.125 1.125 0 0 Z " fill="#FDF1E4" transform="translate(31,30)"/>
<path d="M0 0 C0.28571429 7.42857143 0.28571429 7.42857143 -2 11 C-2.98120464 7.94736336 -2.98120464 6.05263664 -2 3 C-2.61875 3.495 -3.2375 3.99 -3.875 4.5 C-6 6 -6 6 -8 6 C-6.24081631 1.94034532 -4.71412298 0 0 0 Z " fill="#FDF2E9" transform="translate(51,16)"/>
<path d="M0 0 C2.78211944 0.37596209 4.5879284 0.67318459 6.8125 2.4375 C8 4 8 4 8 6 C6 5 4 4 2 3 C2.33 5.64 2.66 8.28 3 11 C2.34 11 1.68 11 1 11 C-0.17571451 7.32589215 -0.07366746 3.83070817 0 0 Z " fill="#FDF3EB" transform="translate(13,16)"/>
<path d="M0 0 C1.98 0 3.96 0 6 0 C6 1.65 6 3.3 6 5 C4.125 5.625 4.125 5.625 2 6 C1.34 5.34 0.68 4.68 0 4 C0 2.68 0 1.36 0 0 Z " fill="#1C1D1E" transform="translate(29,42)"/>
<path d="M0 0 C5.75 1.625 5.75 1.625 8 5 C5.125 5.125 5.125 5.125 2 5 C1.34 4.34 0.68 3.68 0 3 C0 2.01 0 1.02 0 0 Z " fill="#170E06" transform="translate(19,35)"/>
<path d="M0 0 C3.79450934 0.39253545 5.51015791 2.24338912 8 5 C7.34 5.66 6.68 6.32 6 7 C6 6.34 6 5.68 6 5 C5.401875 4.896875 4.80375 4.79375 4.1875 4.6875 C1.71756736 3.91123545 0.67748765 2.92911079 -1 1 C-0.67 0.67 -0.34 0.34 0 0 Z " fill="#AA241B" transform="translate(46,7)"/>
<path d="M0 0 C2.64 0 5.28 0 8 0 C8.33 0.66 8.66 1.32 9 2 C8.01 3.485 8.01 3.485 7 5 C7 4.01 7 3.02 7 2 C5.02 2 3.04 2 1 2 C0.67 2.99 0.34 3.98 0 5 C0 3.35 0 1.7 0 0 Z " fill="#F0EDE9" transform="translate(28,40)"/>
<path d="M0 0 C-0.33 1.32 -0.66 2.64 -1 4 C-3.31 4.33 -5.62 4.66 -8 5 C-3.16129032 0 -3.16129032 0 0 0 Z " fill="#140C05" transform="translate(45,35)"/>
<path d="M0 0 C1.4783226 2.95664519 1.06032783 5.74229737 1 9 C0.67 9 0.34 9 0 9 C-0.33 7.35 -0.66 5.7 -1 4 C-2.65 3.67 -4.3 3.34 -6 3 C-3.375 0 -3.375 0 0 0 Z " fill="#EF8F2F" transform="translate(52,12)"/>
<path d="M0 0 C1.98 0.99 1.98 0.99 4 2 C4 2.99 4 3.98 4 5 C3.01 5.66 2.02 6.32 1 7 C0.67 4.69 0.34 2.38 0 0 Z " fill="#F9AB99" transform="translate(15,19)"/>
<path d="M0 0 C1.36125 0.12375 1.36125 0.12375 2.75 0.25 C1.76 0.91 0.77 1.57 -0.25 2.25 C-2.28135683 3.88101643 -4.25931873 5.56898026 -6.25 7.25 C-6.58 6.26 -6.91 5.27 -7.25 4.25 C-4.83923194 1.28290085 -3.90322061 0.30024774 0 0 Z " fill="#FC9F44" transform="translate(48.25,14.75)"/>
<path d="M0 0 C-3.83325617 2.70582788 -6.32538149 3.32613618 -11 3 C-4.23255814 -1.51162791 -4.23255814 -1.51162791 0 0 Z " fill="#633A2D" transform="translate(48,55)"/>
<path d="M0 0 C-0.33 2.31 -0.66 4.62 -1 7 C-2.32 5.68 -3.64 4.36 -5 3 C-2.25 0 -2.25 0 0 0 Z " fill="#F9A999" transform="translate(49,19)"/>
<path d="M0 0 C1.98 0.495 1.98 0.495 4 1 C4 1.99 4 2.98 4 4 C2.35 4 0.7 4 -1 4 C-0.67 2.68 -0.34 1.36 0 0 Z " fill="#FDF6EF" transform="translate(40,29)"/>
<path d="M0 0 C1.98 0.495 1.98 0.495 4 1 C4 1.99 4 2.98 4 4 C2.35 4 0.7 4 -1 4 C-0.67 2.68 -0.34 1.36 0 0 Z " fill="#FDF6EE" transform="translate(21,29)"/>
<path d="M0 0 C2.88575819 0.39803561 3.82189513 0.79009069 5.75 3.0625 C6.1625 3.701875 6.575 4.34125 7 5 C6.34 5.66 5.68 6.32 5 7 C3.29115995 5.37660195 1.62553283 3.70680947 0 2 C0 1.34 0 0.68 0 0 Z " fill="#FA9A3C" transform="translate(16,15)"/>
<path d="M0 0 C0.33 0.99 0.66 1.98 1 3 C-0.9375 6.1875 -0.9375 6.1875 -3 9 C-3.33 8.01 -3.66 7.02 -4 6 C-2.0625 2.8125 -2.0625 2.8125 0 0 Z " fill="#E5281C" transform="translate(9,13)"/>
</svg>
