/* XPM */
static char *_734396523012[] = {
/* columns rows colors chars-per-pixel */
"64 64 229 2 ",
"   c #010001",
".  c #0D0404",
"X  c #09090A",
"o  c #080808",
"O  c #140505",
"+  c #1C0A08",
"@  c #190806",
"#  c #1D1209",
"$  c #161719",
"%  c #220908",
"&  c #2D0B09",
"*  c #230907",
"=  c #3C0D0B",
"-  c #330C0B",
";  c #23160A",
":  c #2A170C",
">  c #321A11",
",  c #1C1E22",
"<  c #1F2328",
"1  c #343535",
"2  c #2A2A2A",
"3  c #39221A",
"4  c #440E0C",
"5  c #4A0F0C",
"6  c #550D0A",
"7  c #44120D",
"8  c #4B110D",
"9  c #4B1E0F",
"0  c #53110D",
"q  c #5B120E",
"w  c #531210",
"e  c #5C1310",
"r  c #63140F",
"t  c #6C140E",
"y  c #631411",
"u  c #6B1512",
"i  c #6A1913",
"p  c #721612",
"a  c #7C1A14",
"s  c #781914",
"d  c #660C08",
"f  c #49210F",
"g  c #4B2A13",
"h  c #452611",
"j  c #573316",
"k  c #6C2916",
"l  c #692114",
"z  c #722215",
"x  c #782717",
"c  c #683616",
"v  c #733A1A",
"b  c #77371A",
"n  c #582B31",
"m  c #6F2F3D",
"M  c #6F4116",
"N  c #7C431B",
"B  c #75431A",
"V  c #6C4830",
"C  c #5B473B",
"Z  c #783446",
"A  c #4D4C4B",
"S  c #71504C",
"D  c #716256",
"F  c #67696A",
"G  c #7C7673",
"H  c #756766",
"J  c #5E6668",
"K  c #831A14",
"L  c #8C1B15",
"P  c #871713",
"I  c #941C15",
"U  c #9C1C14",
"Y  c #9B1E18",
"T  c #971B17",
"R  c #83160E",
"E  c #A31D16",
"W  c #A31F19",
"Q  c #AA1E17",
"!  c #B81E18",
"~  c #9C2118",
"^  c #98251A",
"/  c #87311B",
"(  c #A32119",
")  c #AC211A",
"_  c #AA2117",
"`  c #B4231B",
"'  c #BC2319",
"]  c #B72116",
"[  c #A31E2B",
"{  c #B12235",
"}  c #911B28",
"|  c #C41F16",
" . c #C71C0E",
".. c #C4251B",
"X. c #CC241C",
"o. c #C8261A",
"O. c #D2261D",
"+. c #DB261D",
"@. c #D4291E",
"#. c #DD291D",
"$. c #D12015",
"%. c #DB3B15",
"&. c #E5251A",
"*. c #E42A1D",
"=. c #EC2A1E",
"-. c #EC2619",
";. c #F22617",
":. c #F52719",
">. c #FC271B",
",. c #F52A1B",
"<. c #FB2B1C",
"1. c #F8321C",
"2. c #C41C36",
"3. c #CA2721",
"4. c #D82A20",
"5. c #D62339",
"6. c #EC2B22",
"7. c #E32B21",
"8. c #F32C21",
"9. c #FE2D22",
"0. c #FF3123",
"q. c #F23023",
"w. c #E2293B",
"e. c #EA3025",
"r. c #834A1D",
"t. c #85461B",
"y. c #9B551C",
"u. c #8B541E",
"i. c #AC5B19",
"p. c #854B21",
"a. c #985922",
"s. c #885223",
"d. c #A35F20",
"f. c #8D623E",
"g. c #AA6524",
"h. c #A66528",
"j. c #B76C27",
"k. c #B9722C",
"l. c #CF521C",
"z. c #D06519",
"x. c #C5752A",
"c. c #CC7629",
"v. c #D92643",
"b. c #F93247",
"n. c #F72E45",
"m. c #857C79",
"M. c #95787B",
"N. c #8C6E73",
"B. c #DB832D",
"V. c #D6802B",
"C. c #DA8431",
"Z. c #EC8B2D",
"A. c #E3862C",
"S. c #FF8C25",
"D. c #FF8E2C",
"F. c #F88C2A",
"G. c #FF922D",
"H. c #FF982E",
"J. c #F9912A",
"K. c #E78A33",
"L. c #F38D31",
"P. c #FE9331",
"I. c #FF9933",
"U. c #FD963A",
"Y. c #F99839",
"T. c #ED9137",
"R. c #FD9C43",
"E. c #FC9E4A",
"W. c #FC9F50",
"Q. c #FDA34D",
"!. c #FDA146",
"~. c #FCA452",
"^. c #FBA65B",
"/. c #FCAA5D",
"(. c #F78678",
"). c #FCAD62",
"_. c #FCB26C",
"`. c #FDB063",
"'. c #FCB574",
"]. c #FDBA7C",
"[. c #FFB975",
"{. c #8D8B8A",
"}. c #939292",
"|. c #A28C8F",
" X c #989FA1",
".X c #9AA1A2",
"XX c #AAAAAA",
"oX c #B6B8B8",
"OX c #F98B84",
"+X c #F88E86",
"@X c #F99A91",
"#X c #FBBB83",
"$X c #FAA89B",
"%X c #F9B2A8",
"&X c #FABBB2",
"*X c #F9ADA6",
"=X c #FDC38B",
"-X c #FCC185",
";X c #FBC796",
":X c #FACDA2",
">X c #FCD3AA",
",X c #FCDBB8",
"<X c #FBC6BA",
"1X c #B8BDC1",
"2X c #C5C8C9",
"3X c #CDD2D4",
"4X c #D6D6D6",
"5X c #FCDBC9",
"6X c #FADDD6",
"7X c #F9CDC6",
"8X c #FCE1C4",
"9X c #FCE6CC",
"0X c #FCEAD5",
"qX c #FCECDC",
"wX c #F8E2DD",
"eX c #FDF1DF",
"rX c #DFE1E3",
"tX c #E4E7E8",
"yX c #FCEDE5",
"uX c #FDF2E4",
"iX c #FEF6EC",
"pX c #FEF8EF",
"aX c #EEF2F3",
"sX c #F3F4F5",
"dX c #FEFAF5",
"fX c #F6F9F9",
"gX c #FFFFFF",
"hX c #FCF6F3",
"jX c None",
/* pixels */
"jXjXjXjXjXjXjXjXjXjXjXjXjXjXjXjXjXjXjXjXjXjXjXjXjXjXjXjXjXjXjXjXjXjXjXjXjXjXjXjXjXjXjXjXjXjXjXjXjXjXjXjXjXjXjXjXjXjXjXjXjXjXjXjX",
"jXjXjXjXjXjXjXjXjXjXjXjXjXjXjXjXjXjXjXjXjXjXjXjXjXjXjXjXjXjXjXjXjXjXjXjXjXjXjXjXjXjXjXjXjXjXjXjXjXjXjXjXjXjXjXjXjXjXjXjXjXjXjXjX",
"jXjXjXjXjXjXjXjXjXjXjXjXjXjXjXjXjXjXjXjXjXjXjXjXjXO - w i K I Y ~ T K i w = @ jXjXjXjXjXjXjXjXjXjXjXjXjXjXjXjXjXjXjXjXjXjXjXjXjX",
"jXjXjXjXjXjXjXjXjXjXjXjXjXjXjXjXjXjXjXjXjXjX- i ( 4.8.9.0.0.0.0.9.0.0.0.0.q.4.Q y & jXjXjXjXjXjXjXjXjXjXjXjXjXjXjXjXjXjXjXjXjXjX",
"jXjXjXjXjXjXjXjXjXjXjXjXjXjXjXjXjXjXjX@ y ` q.0.0.6.o.Y K u q q q q p L ) 3.8.9.9.6.Q e O jXjXjXjXjXjXjXjXjXjXjXjXjXjXjXjXjXjXjX",
"jXjXjXjXjXjXjXjXjXjXjXjXjXjXjXjXjX@ u @.0.0.*.( y 8 0 p L E ` ' ] ] ~ L y 5 5 y W *.9.9.O.y . jXjXjXjXjXjXjXjXjXjXjXjXjXjXjXjXjX",
"jXjXjXjXjXjXjXjXjXjXjXjXjXjXjXjXq @.9.<.' r 8 p ) *.9.9.<.0.9.<.<.<.<.<.0.q.7.Q u 7 u 3.9.9.X.w jXjXjXjXjXjXjXjXjXjXjXjXjXjXjXjX",
"jXjXjXjXjXjXjXjXjXjXjXjXjXjX+ W <.<...0 0 ( 7.0.<.<.,.,.>.<.<.,.<.<.<.,.,.,.<.>.<.&.T 5 e 3.9.9.Y @ jXjXjXjXjXjXjXjXjXjXjXjXjXjX",
"jXjXjXjXjXjXjXjXjXjXjXjXjX4 4.<.&.t 8 ` q.<.,.,.8.,.,.,.,.,.,.q.,.8.<.,.1.,.,.,.<.,.<.,._ 7 p 6.0.3.= jXjXjXjXjXjXjXjXjXjXjXjXjX",
"jXjXjXjXjXjXjXjXjXjXjXjXy 8.<.] 7 L ,.<.,.1.1.,.,.,.1.,.,.,.<.,.1.,.,.1.,.,.q.<.,.,.,.,.<.=.a 7 3.9.e.e jXjXjXjXjXjXjXjXjXjXjXjX",
"jXjXjXjXjXjXjXjXjXjXjXp 9.<.U 7 X.0.1.,.,.,.1.,.1.,.1.<.0.,.,.<.,.,.,.9.,.1.,.,.,.,.,.:.:.,.,...= [ 9.0.p jXjXjXjXjXjXjXjXjXjXjX",
"jXjXjXjXjXjXjXjXjXjXp +.I z + ..9.9.>.,.,.,.,.,.,.,.,.,.<.,.,.>.<.<.,.,.<.,.<.,.-.,.,.,.,.:.:.1.` * x Y e.i jXjXjXjXjXjXjXjXjXjX",
"jXjXjXjXjXjXjXjXjXy #.k x.K.k.v L ,.1.,.1.,.,.,.,.,.,.,.<.,.<.,.,.<.,.<.,.:.:.:.:.,.,.=.;.:.&.L N x.K.k.x e.e jXjXjXjXjXjXjXjXjX",
"jXjXjXjXjXjXjXjX4 ,.T j.I.I.I.U.h.l @.<.=.,.,.,.,.,.1.<.>.,.9.,.>.,.<.,.<.,.,.,.,.,.,.;.,.o.k k.U.I.I.I.h.) e.= jXjXjXjXjXjXjXjX",
"jXjXjXjXjXjXjX* 4.>.z Z.G.D.D.G.I.V.c ] 1.,.,.=.,.,.,.<.,.9.,.>.,.,.,.,.,.,.,.,.-.,.-.;.Q v K.I.G.D.H.G.K.a 9.3.@ jXjXjXjXjXjXjX",
"jXjXjXjXjXjXjXW >.! j I.U.=X#XR.D.I.T.v ] <.,.,.,.,.,.>.>.,.>.>.>.,.,.>.,.,.,.-.,.-.;.E t.J.I.F.!.=X-XI.U.g 3.9.T jXjXjXjXjXjXjX",
"jXjXjXjXjXjXw 9.:.= c G.].gXgXuX#XG.I.Y.B E 9.,.,.,.,.,.<.,.:.:.:.:.>.:.,.,.,.;.;.;.U s.I.G.G.=XiXgXgX).I.j = 8.9.5 jXjXjXjXjXjX",
"jXjXjXjXjX@ X.<.R q t.G.;XgXgXgXgX,XY.H.Y.B Q >.,.:.,.,.<.<.<.>.<.<.>.>.,.:.;.;.;.U r.Y.G.R.,XgXgXgXgX[.H.b y K 9.... jXjXjXjXjX",
"jXjXjXjXjXs 0.o.5 O.t.G.=XgXgXwXyXgX9XY.G.Y.v ' ,.*.X.! W T I P L I U E ! $.&.,.E b J.G.~.0XgXwX5XgXgX_.G.b +.5 4.9.y jXjXjXjXjX",
"jXjXjXjX+ @.<.q Q :.b J.].gXhX%X&XwXgX9XY.I.T.k z x N y.g.j.x.x.x.x.j.d.u.v k i v G.H.Q.uXgX6X*X$XdXdX~.L.k 8.W e 9.3.O jXjXjXjX",
"jXjXjXjXi 0...8 <.:.x Z.).gXiX@X+X*X6XgX0X!.H.Z.B.P.I.H.H.G.I.G.H.H.H.G.G.H.G.V.L.H.!.eXgX7X$XOX@XfXiXY.C.z 9.,.5 3.9.w jXjXjXjX",
"jXjXjXjX` 0.i ~ >.>.L V.R.iXhX$X(.OX*XyXuX_.D.I.G.G.G.G.G.H.G.P.G.G.G.H.H.G.G.H.G.S.`.uXyX@XOXOX*XgX8XG.k.I 9.9.Y u 9.Q jXjXjXjX",
"jXjXjX= q.*.7 *.>.>.E h.G.8XgX&X(.(.*X:XR.D.G.P.G.P.G.G.H.G.G.P.G.G.H.G.G.G.H.D.G.G.G.Y.:X&XOXOX<XgX;XH.a.! <.>.*.4 6.6.& jXjXjX",
"jXjXjXs 0.E i <.>.>.| N H.;XgX6X+X*X#XD.D.D.P.D.G.G.I.G.G.G.G.G.P.P.P.G.G.D.G.G.G.G.G.G.F.#X&XOX6XgX_.H.v #.>.>.9.u Q 9.y jXjXjX",
"jXjXjX) 0.q ` <.:.,.-.x J./.gXhX<X#XD.D.D.G.G.P.D.D.P.D.P.D.P.G.G.G.D.P.P.P.D.D.D.G.G.D.D.S.#X7XdXiX!.A.z 9.>.,.<.Q u 9.W jXjXjX",
"jXjX+ 4.=.7 #.>.>.:.<.L x.I.qXgX:XF.D.G.D.P.G.G.P.P.P.P.P.P.G.G.G.G.P.P.P.D.D.P.D.P.D.P.D.D.F.>XgX,XH.j.T 9.8.>.>.+.8 8.4.. jXjX",
"jXjX7 q.o.0 <.:.,.>.<.' s.H.;XuXU.D.G.G.P.D.G.D.D.P.P.D.G.G.D.D.P.P.D.P.P.D.D.D.G.D.G.D.D.D.D.P.0X-XH.N X.9.>.,.:.>.8 @.8.- jXjX",
"jXjXy 0.( p <.,.,.:.:.-.k J.~.^.D.D.G.G.D.G.D.G.P.D.P.P.G.D.D.D.D.D.P.D.D.P.D.P.D.D.D.D.D.D.D.D.Q.!.Z.x 8.,.,.,.>.<.u _ 0.8 jXjX",
"jXjXa 0.P L <.,.,.,.:.<.I k.G.F.G.D.D.G.S.D.U.G.D.D.D.P.D.D.D.S.D.D.D.D.D.D.P.D.D.U.D.D.D.D.G.G.F.H.j.Y 9.,.:.,.:.<.K L 0.i jXjX",
"jXjXI 9.u _ <.:.,.;.:.>.X.t.H.G.G.D.G.S.^.8XuX5XW.D.D.D.D.D.S.).E.D.D.P.D.D.c.^.9XuX5X~.D.G.G.G.G.J.v +.<.,.,.;.>.>.Y p 9.P jXjX",
"jXjX( <.q ` <.:.-.,.;.:.=.k Z.G.G.G.S.Y.uXgXgXgX6XP.D.D.D.D.U.yX>XS.D.D.G.S.R.yXgXgXgXqXU.G.G.G.G.B.l <.,.,.,.;.;.>.Q y 9.Y jXjX",
"jXjX_ <.q ..>.:.,.;.,.;.| / H.G.G.D.S.'.gXgXgXgXgX~.D.D.D.c.#XgXgX~.D.P.D.S.).gXgXgXgXgX/.S.G.G.G.P.b #.>.,.;.;.;.>.` y <.E jXjX",
"jXjXQ >.q ..>.,.,.;.;.<.a x.H.D.G.D.S./.hXdXhXdXqXR.D.G.D.P.qXgXgX>XS.D.D.S.R.qXpXpXdXiXR.D.G.D.D.G.j.I 9.;.,.;.:.>.` y <.E jXjX",
"jXjXU >.y ' <.,.;.;.;.$.v H.D.G.G.D.G.G.E.~.!.E.U.D.D.D.S.'.gXgXgXiXR.D.G.D.G.U.!.R.Q.R.G.G.D.G.G.G.J.b &.,.,.,.:.>.Q y 9.Y jXjX",
"jXjXI >.u _ <.>.,.,.<.L j.H.G.G.D.P.j.j.L.G.G.S.D.D.D.D.F.>XgXgXgXgX].S.D.D.G.G.D.G.H.Z.g.x.D.D.G.D.I.h.E <.,.,.:.<.T p 9.P jXjX",
"jXjXa >.a I <.,.,.;.-.k Z.H.G.D.D.P.c   : s.K.H.G.D.D.D.U.yXgXgXgXgX,XS.G.D.D.G.H.Z.u.;   r.G.D.D.D.G.A.z 8.,.>.:.>.K P 0.u jXjX",
"jXjXy 9.T p 9.>.,.:...r.H.D.G.G.D.P.B       ; h.U.P.D.S.Q.dXgXgXgXgXqXG.D.D.G.P.h.:       y.H.G.G.S.D.G.N O.>.,.:.<.r ( <.8 jXjX",
"jXjX= 9.| 6 9.:.,.:.L j.H.G.G.D.D.G.k.          j B.G.S.`.gXiXqXqXiXhXR.S.P.A.j         o V.G.G.G.G.S.H.g.Y 9.,.>.,.8 X.6.& jXjX",
"jXjX% 4.-.4 -.<.;.;.z A.G.G.D.D.G.D.I.a.@         # g.H.!./.U.F.F.U.).I.G.h.+         # g.I.G.G.G.G.S.G.c.z 9.,.>.+.7 1.X.O jXjX",
"jXjXjX! <.q ] >.>.-.c G.G.G.D.H.D.D.G.U.V.N h ; # : g c.H.Q.].=X#X'.R.S.j.h : # ; h s.A.I.G.G.G.S.G.G.G.G.k 8.>.<.( y 0.( jXjXjX",
"jXjXjXs 9.T s <.:.$.N H.G.S.D.D.G.D.P.P.P.U.I.L.L.P.G.^.8XdXgXgXgXgXhX,X^.G.J.L.L.I.I.I.P.G.G.G.G.S.D.G.H.v +.<.,.r ( 0.e jXjXjX",
"jXjXjX= 8.+.4 ,.>...t.S.S.S.S.S.D.G.G.P.P.D.P.G.G.D.-XfXgXgXgXfXfXgXgXgXdX#XG.G.G.G.P.I.G.G.G.S.S.S.S.S.G.t.o.<.#.= *.*.; jXjXjX",
"jXjXjXjX' 9.e Q ,.! f.[.[.[.[./.R.D.D.D.P.D.D.D.D.;XgXgXsXF 1 1 2 1 F sXgXgX;XD.G.G.D.G.G.S.G.R.^.[.[.[.[.f...1.L p 1.( jXjXjXjX",
"jXjXjXjXi 9.! 6 0. .G gXgXgXgXgXiX5X].U.D.G.D.S.#XgXgXgXoX  o < < o   oXgXgXgX-XS.P.G.S.U.].8XiXgXgXgXgXgXm.$.;.= o.<.8 jXjXjXjX",
"jXjXjXjX@ 4.9.0 ) ;.S gXgXgXgXgXgXgXgXqX_.D.S.^.dXgXgXgXoX  $ , , $ o oXgXgXgXdX).S.D.'.qXgXgXgXgXgXgXgXfXS <.U y 0.' . jXjXjXjX",
"jXjXjXjXjXs 9.! 4 1.K 4XgXgXgXgXgXgXgXgXgX;XP.wXgXgXgXgXtX$   o o   X 4XgXgXgXgXqXU.:XgXgXgXgXgXgXgXgXgX3X^ 1.= @.<.q jXjXjXjXjX",
"jXjXjXjXjX+ O.>.y I %.G gXgXgXgXgXgXgXgXgXgX0XgXgXgXgXgXgX}.        m.gXgXgXgXgXgXyXgXgXgXgXgXgXgXgXgXgXH %.x K 0.' . jXjXjXjXjX",
"jXjXjXjXjXjXe >.7.4 l./ 2XgXgXgXgXgXgXgXgXgXgXgXgXgXgXgXgXgXXXA 1 XXgXgXgXgXgXgXgXgXgXgXgXgXgXgXgXgXgX1Xt.l.8 q.,.7 jXjXjXjXjXjX",
"jXjXjXjXjXjXjXU >.! 7 z.S aXfXgXgXgXgXgXgXgXgXgXgXgXgXgXgXgXgX3X2XgXgXgXgXgXgXgXgXgXgXgXgXgXgXgXgXgXtXV z.f X.<.~ jXjXjXjXjXjXjX",
"jXjXjXjXjXjXjX* 4.9.P k z.G gXgXgXgXgXgXgXgXgXgXgXgXgX2X4XaXsXoXoXfXfXtX3XgXgXgXgXgXgXgXgXgXgXgXgXfXJ z.c ( 1.@.+ jXjXjXjXjXjXjX",
"jXjXjXjXjXjXjXjX5 8.9.u b i.{.gXgXgXgXgXgXgXgXgXgXgXgXoX2 Z Z n n Z Z 2 2XgXgXgXgXgXgXgXgXgXgXgXdXG i.M L <.=.= jXjXjXjXjXjXjXjX",
"jXjXjXjXjXjXjXjXjXy 8.9.y t.a.{.gXgXgXgXgXgXgXgXgXgXgXgXN.2.v.{ { v.2.N.gXgXgXgXgXgXgXgXgXgXgXfXG y.M K 1.1.0 jXjXjXjXjXjXjXjXjX",
"jXjXjXjXjXjXjXjXjXjXu 9.9.y c a.m.fXgXgXgXgXgXgXgXgXgXgX|.5.b.b.n.b.w.|.gXgXgXgXgXgXgXgXgXgXrXD y.j P <.1.q jXjXjXjXjXjXjXjXjXjX",
"jXjXjXjXjXjXjXjXjXjXjXu 9.>.K g u.D 3XgXgXgXgXgXgXgXgXgXoX} b.b.n.b.[ XXgXgXgXgXgXgXgXgXgXoXV y.f E 1.,.q jXjXjXjXjXjXjXjXjXjXjX",
"jXjXjXjXjXjXjXjXjXjXjXjXe 6.9.! 7 M V {.aXgXgXgXgXgXgXgXfXH [ v.w.{ D sXgXgXgXgXgXgXgXrXm.N v 9 X.0.*.8 jXjXjXjXjXjXjXjXjXjXjXjX",
"jXjXjXjXjXjXjXjXjXjXjXjXjX= 4.9.*.t h c C XXaXgXgXgXgXgXgXfXXXM.M.XXsXgXgXgXgXgXgXrX{.V c f a q.1.o.: jXjXjXjXjXjXjXjXjXjXjXjXjX",
"jXjXjXjXjXjXjXjXjXjXjXjXjXjX% ~ 9.9...e h g C {.4XgXgXgXgXgXgXgXgXgXgXgXgXgXgX3Xm.n f f p @.0.1.K o jXjXjXjXjXjXjXjXjXjXjXjXjXjX",
"jXjXjXjXjXjXjXjXjXjXjXjXjXjXjXjXw X.9.9...u = > 2 A }.3XfXgXgXgXgXgXgXfX3X}.A : : 8 K @.<.1.] = jXjXjXjXjXjXjXjXjXjXjXjXjXjXjXjX",
"jXjXjXjXjXjXjXjXjXjXjXjXjXjXjXjXjX@ p 4.9.9.4.W t = O o 2 F .X2X2X XJ 2 o O = s ` =.0.0.' 0 . jXjXjXjXjXjXjXjXjXjXjXjXjXjXjXjXjX",
"jXjXjXjXjXjXjXjXjXjXjXjXjXjXjXjXjXjXjX+ i ` 8.9.0.=.X.) P r 6 w 0 6 d R Q 4.9.9.9.#.~ 7 . jXjXjXjXjXjXjXjXjXjXjXjXjXjXjXjXjXjXjX",
"jXjXjXjXjXjXjXjXjXjXjXjXjXjXjXjXjXjXjXjXjXjX- i ( X.q.0.0.0.0.0.0.0.0.0.9.6.3.L 0 + jXjXjXjXjXjXjXjXjXjXjXjXjXjXjXjXjXjXjXjXjXjX",
"jXjXjXjXjXjXjXjXjXjXjXjXjXjXjXjXjXjXjXjXjXjXjXjXjXO & 8 i a K L L K s e 4 % o jXjXjXjXjXjXjXjXjXjXjXjXjXjXjXjXjXjXjXjXjXjXjXjXjX",
"jXjXjXjXjXjXjXjXjXjXjXjXjXjXjXjXjXjXjXjXjXjXjXjXjXjXjXjXjXjXjXjXjXjXjXjXjXjXjXjXjXjXjXjXjXjXjXjXjXjXjXjXjXjXjXjXjXjXjXjXjXjXjXjX",
"jXjXjXjXjXjXjXjXjXjXjXjXjXjXjXjXjXjXjXjXjXjXjXjXjXjXjXjXjXjXjXjXjXjXjXjXjXjXjXjXjXjXjXjXjXjXjXjXjXjXjXjXjXjXjXjXjXjXjXjXjXjXjXjX"
};
