<?xml version="1.0" encoding="UTF-8"?>
<svg version="1.1" xmlns="http://www.w3.org/2000/svg" width="16" height="16">
<path d="M0 0 C2.375 1.6875 2.375 1.6875 4 4 C4.60817046 7.64902278 4.51417751 9.26828585 2.375 12.3125 C-0.55936789 14.39744561 -2.4021905 14.92657532 -6 15 C-10.56521739 12.86956522 -10.56521739 12.86956522 -12 10 C-12.3125 7.125 -12.3125 7.125 -12 4 C-8.20909306 -0.67545189 -5.81912245 -1.51297184 0 0 Z " fill="#982819" transform="translate(12,1)"/>
<path d="M0 0 C3.3 0 6.6 0 10 0 C10 0.99 10 1.98 10 3 C9.34 3 8.68 3 8 3 C8 3.66 8 4.32 8 5 C8.66 5.33 9.32 5.66 10 6 C9.34 7.32 8.68 8.64 8 10 C6.02 10 4.04 10 2 10 C0.03266267 6.4342011 0 4.06058324 0 0 Z " fill="#F5A662" transform="translate(3,4)"/>
<path d="M0 0 C2.375 1.6875 2.375 1.6875 4 4 C4.375 7.125 4.375 7.125 4 10 C3.34 10.66 2.68 11.32 2 12 C2 9.03 2 6.06 2 3 C0.5975 3.165 -0.805 3.33 -2.25 3.5 C-5.22918921 3.85049285 -7.98146205 4 -11 4 C-10 1 -10 1 -8.3125 -0.25 C-5.13382332 -1.28092217 -3.19422968 -0.93165032 0 0 Z " fill="#781510" transform="translate(12,1)"/>
<path d="M0 0 C3.3 0 6.6 0 10 0 C9.34 1.32 8.68 2.64 8 4 C6.02 4 4.04 4 2 4 C1.34 2.68 0.68 1.36 0 0 Z " fill="#E1C6B5" transform="translate(3,10)"/>
<path d="M0 0 C0.33 0 0.66 0 1 0 C1 3.3 1 6.6 1 10 C0.01 10.33 -0.98 10.66 -2 11 C-1.34 9.35 -0.68 7.7 0 6 C-1.32 5.67 -2.64 5.34 -4 5 C-3.34 5 -2.68 5 -2 5 C-2 4.34 -2 3.68 -2 3 C-1.34 3 -0.68 3 0 3 C0 2.01 0 1.02 0 0 Z " fill="#BA3F1B" transform="translate(13,4)"/>
<path d="M0 0 C0.66 0.66 1.32 1.32 2 2 C-0.76250036 3.38125018 -2.94731099 3.19079306 -6 3 C-6.66 2.34 -7.32 1.68 -8 1 C-5.23749964 -0.38125018 -3.05268901 -0.19079306 0 0 Z " fill="#E6361D" transform="translate(11,2)"/>
</svg>
