<?xml version="1.0" encoding="UTF-8"?>
<svg version="1.1" xmlns="http://www.w3.org/2000/svg" width="128" height="128">
<path d="M0 0 C12.33926899 10.45097257 21.03912231 25.23798546 22.7734375 41.48828125 C24.18401348 59.10963038 19.42592116 75.71415896 7.91455078 89.30541992 C-3.62128007 102.22401183 -18.90627454 109.18643689 -36.01953125 110.7421875 C-52.34775716 111.42528467 -68.47215355 105.22666877 -80.84765625 94.73828125 C-94.02128354 82.27849583 -101.02254701 66.6548924 -101.6015625 48.48828125 C-101.00508653 31.14459528 -94.44764397 15.23877638 -82.078125 3.04296875 C-58.9825528 -17.64813292 -24.37633496 -19.53789023 0 0 Z " fill="#FB9030" transform="translate(103.2265625,15.51171875)"/>
<path d="M0 0 C12.33926899 10.45097257 21.03912231 25.23798546 22.7734375 41.48828125 C24.18401348 59.10963038 19.42592116 75.71415896 7.91455078 89.30541992 C-3.62128007 102.22401183 -18.90627454 109.18643689 -36.01953125 110.7421875 C-52.34775716 111.42528467 -68.47215355 105.22666877 -80.84765625 94.73828125 C-94.02128354 82.27849583 -101.02254701 66.6548924 -101.6015625 48.48828125 C-101.00508653 31.14459528 -94.44764397 15.23877638 -82.078125 3.04296875 C-58.9825528 -17.64813292 -24.37633496 -19.53789023 0 0 Z M-80.8359375 10.6953125 C-85.78742288 20.64000926 -80.39294052 32.68808175 -77.2265625 42.48828125 C-75.94450738 46.62745958 -76.81747773 48.57355359 -78.6015625 52.55078125 C-82.17705216 60.63058889 -84.3545305 68.54174618 -81.23828125 77.25 C-74.25820938 89.77480501 -62.30150992 96.92190351 -49.0390625 101.36328125 C-36.97327964 104.53245839 -25.4911628 100.734212 -14.8515625 94.67578125 C-7.02036871 89.56791442 0.73568715 83.65967105 3.7734375 74.48828125 C5.20935592 66.14571389 3.02333602 59.25725529 -0.03515625 51.51953125 C-2.34551783 45.6413654 -1.89646386 42.51688975 0.1484375 36.55078125 C2.89644089 28.31432054 5.52804421 20.10302272 2.8359375 11.48828125 C1.92975505 9.54702738 1.92975505 9.54702738 0.7734375 8.48828125 C-2.23224093 7.97511664 -4.37865743 8.0215772 -7.0859375 9.51171875 C-10.17935614 11.75135385 -12.83587707 14.04014208 -15.3515625 16.92578125 C-20.93894048 23.31135609 -20.93894048 23.31135609 -24.78515625 23.83984375 C-27.4765625 23.55078125 -27.4765625 23.55078125 -30.26953125 23.03125 C-33.50105739 22.43787862 -36.50551254 22.35170587 -39.7890625 22.36328125 C-40.88089844 22.35683594 -41.97273438 22.35039063 -43.09765625 22.34375 C-46.0219031 22.47882757 -48.5139846 23.01472903 -51.3515625 23.67578125 C-53.75390625 23.98046875 -53.75390625 23.98046875 -56.2265625 23.48828125 C-59.38348765 20.97500103 -61.99506429 18.23184429 -64.68359375 15.23828125 C-68.35619212 11.26668485 -71.6030534 9.02490811 -76.9765625 7.92578125 C-79.44047255 8.28637279 -79.44047255 8.28637279 -80.8359375 10.6953125 Z " fill="#E42920" transform="translate(103.2265625,15.51171875)"/>
<path d="M0 0 C1.3293457 0.00483398 1.3293457 0.00483398 2.68554688 0.00976562 C4.05356445 0.02233398 4.05356445 0.02233398 5.44921875 0.03515625 C6.38056641 0.03966797 7.31191406 0.04417969 8.27148438 0.04882812 C10.55996248 0.06056391 12.84830683 0.07698262 15.13671875 0.09765625 C15.13671875 1.08765625 15.13671875 2.07765625 15.13671875 3.09765625 C14.28460815 3.14925903 14.28460815 3.14925903 13.4152832 3.2019043 C-1.89597858 4.20016204 -14.14902501 5.89709193 -26.64453125 15.546875 C-28.86328125 17.09765625 -28.86328125 17.09765625 -31.515625 18.0859375 C-34.23708121 19.25874475 -34.75406015 19.93812185 -35.92578125 22.59765625 C-36.4053125 23.66693359 -36.4053125 23.66693359 -36.89453125 24.7578125 C-37.21421875 25.52996094 -37.53390625 26.30210938 -37.86328125 27.09765625 C-38.20359375 27.90074219 -38.54390625 28.70382813 -38.89453125 29.53125 C-45.55007245 45.69110573 -49.34945813 62.63158571 -42.48828125 79.47265625 C-38.73155221 87.54266678 -34.2610706 93.80141911 -27.86328125 100.09765625 C-27.74785928 98.85689323 -27.74785928 98.85689323 -29.36328125 97.53515625 C-29.85828125 97.06078125 -30.35328125 96.58640625 -30.86328125 96.09765625 C-30.53328125 95.43765625 -30.20328125 94.77765625 -29.86328125 94.09765625 C-28.98929688 94.96777344 -28.98929688 94.96777344 -28.09765625 95.85546875 C-18.71440786 104.79611109 -6.88839019 111.66094144 6.32421875 112.59765625 C20.16555015 112.05774616 34.86252911 104.09157236 44.13671875 94.09765625 C48.53995165 88.54808291 49.92119902 83.41774114 49.640625 76.3671875 C48.86948486 71.36374334 47.18381426 66.82364148 45.328125 62.12890625 C43.01776342 56.2507404 43.46681739 53.12626475 45.51171875 47.16015625 C47.78463028 40.34766591 49.27263626 34.55348956 49.19921875 27.28515625 C49.19019531 26.12371094 49.18117188 24.96226563 49.171875 23.765625 C49.16027344 22.88519531 49.14867188 22.00476563 49.13671875 21.09765625 C58.37136643 30.33230393 63.15126034 45.90125376 63.38671875 58.66015625 C63.3142948 63.80225669 62.67296706 68.20086477 61.13671875 73.09765625 C63.11671875 71.61265625 63.11671875 71.61265625 65.13671875 70.09765625 C64.65219771 76.06456611 63.42440934 80.5955427 60.69921875 85.91015625 C60.34577393 86.60230225 59.9923291 87.29444824 59.62817383 88.00756836 C53.88410055 98.7660118 45.87506603 106.29958412 35.13671875 112.09765625 C34.4096875 112.49597656 33.68265625 112.89429687 32.93359375 113.3046875 C18.03086966 120.67325663 1.60370748 120.73734618 -13.96191406 115.78222656 C-27.31313791 110.97523739 -38.85907301 100.29127787 -45.86328125 88.09765625 C-53.18026914 72.20810267 -55.26104367 56.51622113 -50.18359375 39.6328125 C-44.50237431 24.42126342 -33.2785452 11.71446911 -18.671875 4.52734375 C-12.42697533 1.845485 -6.84312242 -0.04414918 0 0 Z " fill="#3E1912" transform="translate(56.86328125,4.90234375)"/>
<path d="M0 0 C4.61032146 2.59854482 9.02565187 6.11380374 11.4375 10.9375 C14.99952774 10.36757556 17.64267243 8.65657486 20.72265625 6.859375 C25.5794247 4.24844708 31.08052303 4.83246124 36.4375 4.9375 C36.08849569 13.1391013 31.7530108 18.98461222 25.9375 24.5625 C16.70747469 32.16577755 2.99667793 38.77726425 -9.15625 38.28515625 C-22.73474332 36.32332848 -35.38024463 28.96201261 -44.5625 18.9375 C-47.91811204 14.28952387 -49.8674042 10.75100683 -49.5625 4.9375 C-40.33318219 4.23057353 -32.86969838 6.11509764 -25.5625 11.9375 C-24.97082031 11.25042969 -24.37914063 10.56335938 -23.76953125 9.85546875 C-22.97933594 8.95441406 -22.18914063 8.05335937 -21.375 7.125 C-20.59769531 6.23167969 -19.82039063 5.33835937 -19.01953125 4.41796875 C-13.15407386 -1.50343895 -7.80106409 -2.32663315 0 0 Z " fill="#FBFAF9" transform="translate(70.5625,80.0625)"/>
<path d="M0 0 C0.99 1.485 0.99 1.485 2 3 C0.39172387 5.53938336 -0.49873628 6.82121611 -3.37866211 7.84838867 C-6.53633817 9.23562514 -7.64972841 10.85045136 -9.75390625 13.55078125 C-14.4209991 18.36079356 -18.73087071 19.13180952 -25.15591431 19.28152466 C-26.65604911 19.28002787 -28.15625005 19.26202285 -29.65600586 19.22827148 C-31.93522519 19.18754065 -34.19641203 19.24824964 -36.47460938 19.31835938 C-42.32994946 19.36142983 -47.17595274 19.27468315 -52.1484375 15.79980469 C-54.62053313 13.31046609 -56.79077796 10.7202723 -59 8 C-61.25536514 6.14359188 -63.55049211 4.59750515 -66 3 C-60.12754069 -4.13084345 -50.78543721 -8.36155684 -41.74609375 -9.75 C-26.73836308 -11.11627989 -12.27010593 -9.50679695 0 0 Z " fill="#F12A1B" transform="translate(96,20)"/>
<path d="M0 0 C1.3293457 0.00483398 1.3293457 0.00483398 2.68554688 0.00976562 C4.05356445 0.02233398 4.05356445 0.02233398 5.44921875 0.03515625 C6.38056641 0.03966797 7.31191406 0.04417969 8.27148438 0.04882812 C10.55996248 0.06056391 12.84830683 0.07698262 15.13671875 0.09765625 C15.13671875 1.08765625 15.13671875 2.07765625 15.13671875 3.09765625 C14.28460815 3.14925903 14.28460815 3.14925903 13.4152832 3.2019043 C-1.89597858 4.20016204 -14.14902501 5.89709193 -26.64453125 15.546875 C-28.86328125 17.09765625 -28.86328125 17.09765625 -31.421875 17.921875 C-34.90604812 19.59985277 -35.7162607 21.80361515 -37.42578125 25.22265625 C-38.02003906 26.39957031 -38.61429688 27.57648437 -39.2265625 28.7890625 C-39.76667969 29.88089844 -40.30679688 30.97273438 -40.86328125 32.09765625 C-41.26933594 32.82855469 -41.67539062 33.55945312 -42.09375 34.3125 C-48.62122158 46.14197915 -49.93215489 60.3228157 -46.42480469 73.29174805 C-41.72660621 88.77043717 -32.38571845 100.80081152 -18.09375 108.58984375 C-2.60877784 115.81741238 12.15197923 115.76112356 28.13671875 110.09765625 C44.17671306 103.31467665 53.10522899 91.54579279 59.64453125 75.91796875 C61.16886746 73.03689351 62.39194549 71.78221666 65.13671875 70.09765625 C64.65219771 76.06456611 63.42440934 80.5955427 60.69921875 85.91015625 C60.34577393 86.60230225 59.9923291 87.29444824 59.62817383 88.00756836 C53.88410055 98.7660118 45.87506603 106.29958412 35.13671875 112.09765625 C34.4096875 112.49597656 33.68265625 112.89429687 32.93359375 113.3046875 C18.03086966 120.67325663 1.60370748 120.73734618 -13.96191406 115.78222656 C-27.31313791 110.97523739 -38.85907301 100.29127787 -45.86328125 88.09765625 C-53.18026914 72.20810267 -55.26104367 56.51622113 -50.18359375 39.6328125 C-44.50237431 24.42126342 -33.2785452 11.71446911 -18.671875 4.52734375 C-12.42697533 1.845485 -6.84312242 -0.04414918 0 0 Z " fill="#E82A1E" transform="translate(56.86328125,4.90234375)"/>
<path d="M0 0 C12.33926899 10.45097257 21.03912231 25.23798546 22.7734375 41.48828125 C24.18401348 59.10963038 19.42592116 75.71415896 7.91455078 89.30541992 C-3.62128007 102.22401183 -18.90627454 109.18643689 -36.01953125 110.7421875 C-52.34775716 111.42528467 -68.47215355 105.22666877 -80.84765625 94.73828125 C-94.02128354 82.27849583 -101.02254701 66.6548924 -101.6015625 48.48828125 C-101.00508653 31.14459528 -94.44764397 15.23877638 -82.078125 3.04296875 C-58.9825528 -17.64813292 -24.37633496 -19.53789023 0 0 Z M-87.3984375 12.10546875 C-96.85789013 25.08189735 -101.16739616 40.45260092 -99.2265625 56.48828125 C-96.12501257 73.3385483 -87.70084383 88.16667293 -73.4375 98.1171875 C-58.34375073 107.47744544 -43.16581537 110.73309065 -25.7890625 106.92578125 C-10.71059689 103.26071378 2.09648822 95.00291764 10.7109375 81.92578125 C11.76268054 80.13104074 12.78624463 78.31932117 13.7734375 76.48828125 C14.17175781 75.74964844 14.57007812 75.01101562 14.98046875 74.25 C22.30857842 59.2369813 22.49294673 43.03907859 17.45800781 27.37353516 C12.00606101 12.35929364 -0.21020656 0.35946892 -14.484375 -6.34375 C-41.25453479 -17.7458551 -68.81513624 -10.28807773 -87.3984375 12.10546875 Z " fill="#0C0303" transform="translate(103.2265625,15.51171875)"/>
<path d="M0 0 C0.66 0 1.32 0 2 0 C2.14695312 1.19882812 2.14695312 1.19882812 2.296875 2.421875 C3.24878984 9.41352538 4.70652392 15.67487878 7.29296875 22.24609375 C8.56071272 27.18399152 7.1156589 31.09005931 5 35.5625 C2.24076328 42.33332074 0.70637105 49.61156495 2.81640625 56.76953125 C5.54815442 62.63873276 9.51806327 67.37598458 14 72 C10.29064811 72 9.83194842 71.29063724 7.25 68.75 C-4.2269637 56.82917583 -8.36958877 42.89195771 -8.21484375 26.6953125 C-7.64572666 16.90649852 -4.84055715 8.47575818 0 0 Z " fill="#EE291B" transform="translate(18,34)"/>
<path d="M0 0 C6.18270815 4.85784212 8.18300395 13.66962965 10 21 C11.41165411 35.60690517 8.6052739 48.35704466 1 61 C0.01 60.34 -0.98 59.68 -2 59 C-1.67 58.34 -1.34 57.68 -1 57 C1.4970482 49.5088554 -0.54322135 43.6023846 -3.13305664 36.45556641 C-5.91472169 28.75697914 -6.1745615 24.24656152 -3.625 16.625 C-1.7991441 11.04711054 -0.56822721 5.85406174 0 0 Z " fill="#EF291C" transform="translate(108,34)"/>
<path d="M0 0 C1.33064157 0.75476538 2.66363552 1.50541438 4 2.25 C6.03721846 3.43837744 8.03761331 4.6917422 10 6 C9.67 6.66 9.34 7.32 9 8 C8.67 7.67 8.34 7.34 8 7 C5.32941149 6.85884839 2.67567762 6.95752893 0 7 C0.495 5.515 0.495 5.515 1 4 C-12.22243802 -5.79439853 -26.26785781 -8.68429684 -42.484375 -6.5390625 C-50.60064024 -4.88862579 -60.20970193 -2.18544711 -65 5 C-64.14728516 5.63615234 -64.14728516 5.63615234 -63.27734375 6.28515625 C-62.50519531 6.87167969 -61.73304687 7.45820313 -60.9375 8.0625 C-60.18339844 8.63097656 -59.42929687 9.19945313 -58.65234375 9.78515625 C-56 12 -56 12 -54.72045898 13.77075195 C-51.94059183 17.36047636 -49.93792416 18.81072878 -45.4152832 19.72338867 C-41.77394764 20.0749285 -38.15091172 20.11905795 -34.49487305 20.07739258 C-32.19872643 20.06257246 -29.91750489 20.13815094 -27.62304688 20.22070312 C-19.11281916 20.39081805 -19.11281916 20.39081805 -11.69775391 16.69873047 C-9.23872935 14.24577009 -7.05768785 11.7944575 -5 9 C-4.34 9.33 -3.68 9.66 -3 10 C-12.69816643 21.52609309 -12.69816643 21.52609309 -17.7890625 22.57421875 C-20.58746866 22.231641 -23.25179837 21.62493352 -26 21 C-28.18558518 20.8994525 -30.37465721 20.85962874 -32.5625 20.875 C-33.65433594 20.86855469 -34.74617188 20.86210938 -35.87109375 20.85546875 C-38.7953406 20.99054632 -41.2874221 21.52644778 -44.125 22.1875 C-46.52734375 22.4921875 -46.52734375 22.4921875 -49 22 C-52.15692515 19.48671978 -54.76850179 16.74356304 -57.45703125 13.75 C-61.12554168 9.78282436 -64.40178308 7.22112484 -69.9375 6.75 C-70.9584375 6.87375 -70.9584375 6.87375 -72 7 C-75.66689716 13.3176662 -74.72710934 20.59232836 -72.9140625 27.42578125 C-71.70321393 31.6478013 -70.35025085 35.82086294 -69 40 C-67.71794488 44.13917833 -68.59091523 46.08527234 -70.375 50.0625 C-73.73648375 57.65870212 -74.784002 63.64736333 -74 72 C-72.93602985 74.67780722 -71.64636917 76.61010927 -70 79 C-70.495 79.99 -70.495 79.99 -71 81 C-71.81642254 79.73168307 -72.62799105 78.46024069 -73.4375 77.1875 C-73.88996094 76.47980469 -74.34242187 75.77210937 -74.80859375 75.04296875 C-78.12374781 69.35829473 -77.04431066 63.25899348 -76 57 C-75.19899566 54.84601717 -74.32496515 52.71756212 -73.375 50.625 C-70.62916503 44.52049153 -70.90305946 41.36541357 -72.9765625 35.00390625 C-75.11668464 28.34489311 -76.47495091 23.00552597 -76 16 C-76.66 16 -77.32 16 -78 16 C-77.57405412 14.55903414 -77.13373367 13.12231288 -76.6875 11.6875 C-76.44386719 10.88699219 -76.20023438 10.08648438 -75.94921875 9.26171875 C-74.36435643 5.48544186 -72.62768681 4.26362846 -68.875 2.6875 C-68.25882813 2.44257813 -67.64265625 2.19765625 -67.0078125 1.9453125 C-64.7204993 0.86840628 -62.80748158 -0.4699773 -60.75 -1.9375 C-41.9928698 -14.82701511 -18.42455704 -11.44229586 0 0 Z " fill="#39130B" transform="translate(96,18)"/>
<path d="M0 0 C1.3303125 0.00773437 1.3303125 0.00773437 2.6875 0.015625 C3.574375 0.01046875 4.46125 0.0053125 5.375 0 C7.6875 0.265625 7.6875 0.265625 9.6875 2.265625 C9.22596154 8.72716346 9.22596154 8.72716346 6.6875 11.265625 C5.6975 11.265625 4.7075 11.265625 3.6875 11.265625 C3.6875 12.915625 3.6875 14.565625 3.6875 16.265625 C6.3275 16.265625 8.9675 16.265625 11.6875 16.265625 C11.29054363 17.89555192 10.86917507 19.51954735 10.4375 21.140625 C10.20546875 22.04554687 9.9734375 22.95046875 9.734375 23.8828125 C8.6875 26.265625 8.6875 26.265625 6.734375 27.5625 C4.1409896 28.45335758 2.4122634 28.67433951 -0.3125 28.265625 C-4.80529273 25.18485284 -5.29828667 21.33669165 -6.3125 16.265625 C-3.6725 16.265625 -1.0325 16.265625 1.6875 16.265625 C1.28165005 13.42467533 0.82452954 12.39409019 -1.3125 10.390625 C-3.83434371 7.71116605 -4.15449888 5.89965083 -4.3125 2.265625 C-2.3125 0.265625 -2.3125 0.265625 0 0 Z " fill="#CD3245" transform="translate(61.3125,83.734375)"/>
<path d="M0 0 C0.33 0.33 0.66 0.66 1 1 C0.82571368 8.62837835 -0.59330699 15.77992097 -3 23 C-5.7588596 21.9161623 -7.01033393 20.98691035 -8.875 18.625 C-11.2622919 15.67599236 -13.78286452 13.97415131 -17 12 C-15.48800263 8.24957078 -13.30538722 6.27422653 -10.1875 3.75 C-8.90939453 2.69039062 -8.90939453 2.69039062 -7.60546875 1.609375 C-4.73741208 -0.16219823 -3.30447979 -0.43829051 0 0 Z " fill="#FDF8F2" transform="translate(102,31)"/>
<path d="M0 0 C9.09411568 9.09411568 13.91343906 24.53977163 14.375 37.125 C14.05674342 54.15172695 7.03886931 68.29096272 -5 80 C-10.4904574 84.9675567 -16.94187911 88.70810614 -24 91 C-24.99 90.67 -25.98 90.34 -27 90 C-25.96101563 89.52691406 -24.92203125 89.05382812 -23.8515625 88.56640625 C-8.63196035 81.43809937 2.25815085 72.63546452 8.26074219 56.38623047 C13.0959076 42.01678868 12.58438207 27.37629185 5.84375 13.64453125 C4.95812569 12.05989632 3.99057316 10.52123736 3 9 C2.67 10.65 2.34 12.3 2 14 C1.67 14 1.34 14 1 14 C0.67 9.38 0.34 4.76 0 0 Z " fill="#290A08" transform="translate(106,26)"/>
<path d="M0 0 C0.33 0.66 0.66 1.32 1 2 C0.07421875 4.25 0.07421875 4.25 -1.3125 7 C-7.00024953 19.18126357 -8.29910586 34.10268242 -4 47 C2.52962413 63.02725922 12.37189382 73.31178733 28.1875 80.4375 C29.45441803 80.96778618 30.72372703 81.4926421 32 82 C29.29461024 83.06420545 28.13534466 83.04564409 25.3359375 82.1015625 C17.80449927 78.34577932 11.9034817 73.98811943 6 68 C5.42507812 67.43539062 4.85015625 66.87078125 4.2578125 66.2890625 C-5.83322266 55.57060546 -9.61969475 41.05245736 -9.28515625 26.7109375 C-8.62302042 18.09410134 -6.40577879 6.40577879 0 0 Z " fill="#2E0B08" transform="translate(17,34)"/>
<path d="M0 0 C6.03453348 0.12571945 8.80946282 2.06232472 13.203125 6.11328125 C14.97859339 7.97752306 16.50351595 9.90769359 18 12 C16.234375 12.71484375 16.234375 12.71484375 14 13 C12.078125 11.56640625 12.078125 11.56640625 10.25 9.5625 C9.32960938 8.57443359 9.32960938 8.57443359 8.390625 7.56640625 C7.93171875 7.04949219 7.4728125 6.53257813 7 6 C5.71387324 7.05978933 5.71387324 7.05978933 5.90234375 9.50390625 C5.91394531 10.51324219 5.92554688 11.52257812 5.9375 12.5625 C5.94652344 13.57441406 5.95554687 14.58632813 5.96484375 15.62890625 C5.97644531 16.41136719 5.98804688 17.19382812 6 18 C6.99 18.33 7.98 18.66 9 19 C7.625 21.5 7.625 21.5 6 24 C5.34 24 4.68 24 4 24 C1.08308519 15.80919903 -0.62867565 8.71414306 0 0 Z " fill="#FDF7F1" transform="translate(25,31)"/>
<path d="M0 0 C4.35128961 3.45102279 5.82603156 7.72603573 7 13 C7 14.65 7 16.3 7 18 C3.04 17.67 -0.92 17.34 -5 17 C-5.7342166 10.24520726 -3.27591952 5.81475715 0 0 Z " fill="#FEF8F2" transform="translate(63,59)"/>
<path d="M0 0 C0.89589844 -0.01417969 1.79179688 -0.02835937 2.71484375 -0.04296875 C5.0625 0.1875 5.0625 0.1875 7.0625 2.1875 C7 5.625 7 5.625 6.0625 9.1875 C3.875 11.25 3.875 11.25 1.0625 12.1875 C-2.3158059 11.59132837 -4.2160163 11.09719684 -6.375 8.375 C-7.07641472 5.64727607 -6.73430372 3.86765798 -5.9375 1.1875 C-4.27188601 -0.47811399 -2.27787295 0.01634055 0 0 Z " fill="#202122" transform="translate(63.9375,83.8125)"/>
<path d="M0 0 C0 0.66 0 1.32 0 2 C-1.2065625 2.4021875 -1.2065625 2.4021875 -2.4375 2.8125 C-3.283125 3.204375 -4.12875 3.59625 -5 4 C-8.62506063 14.87518189 -4.34931761 25.63358748 -1 36 C0.28205512 40.13917833 -0.59091523 42.08527234 -2.375 46.0625 C-5.73648375 53.65870212 -6.784002 59.64736333 -6 68 C-4.93602985 70.67780722 -3.64636917 72.61010927 -2 75 C-2.495 75.99 -2.495 75.99 -3 77 C-3.81642254 75.73168307 -4.62799105 74.46024069 -5.4375 73.1875 C-5.88996094 72.47980469 -6.34242187 71.77210937 -6.80859375 71.04296875 C-10.12374781 65.35829473 -9.04431066 59.25899348 -8 53 C-7.19899566 50.84601717 -6.32496515 48.71756212 -5.375 46.625 C-2.62916503 40.52049153 -2.90305946 37.36541357 -4.9765625 31.00390625 C-7.11668464 24.34489311 -8.47495091 19.00552597 -8 12 C-8.66 12 -9.32 12 -10 12 C-9.57405412 10.55903414 -9.13373367 9.12231288 -8.6875 7.6875 C-8.44386719 6.88699219 -8.20023438 6.08648437 -7.94921875 5.26171875 C-6.08023788 0.80846804 -4.91610916 0 0 0 Z " fill="#471F16" transform="translate(28,22)"/>
<path d="M0 0 C0.32693436 3.59627792 0.47194463 5.37635888 -1.75 8.3125 C-5.43409858 11.07557393 -8.73159834 11.12195265 -13.25 11.0625 C-14.14203125 11.05347656 -15.0340625 11.04445313 -15.953125 11.03515625 C-16.62859375 11.02355469 -17.3040625 11.01195313 -18 11 C-13.57087792 5.9803283 -6.94088151 0 0 0 Z " fill="#110B05" transform="translate(91,69)"/>
<path d="M0 0 C6.34841876 2.28645263 11.77296842 4.68201739 17 9 C17 9.66 17 10.32 17 11 C5.11024527 11.56221257 5.11024527 11.56221257 1 8 C-0.35439668 5.29120665 -0.06501451 2.99066732 0 0 Z " fill="#0E0904" transform="translate(37,69)"/>
<path d="M0 0 C0.33 0.99 0.66 1.98 1 3 C-8.78177004 5.59610959 -17.78413191 7.70861513 -28 7 C-28 6.34 -28 5.68 -28 5 C-23.38 4.67 -18.76 4.34 -14 4 C-14.33 3.34 -14.66 2.68 -15 2 C-13.06524329 1.46906676 -11.12706845 0.95057683 -9.1875 0.4375 C-8.10855469 0.14746094 -7.02960938 -0.14257812 -5.91796875 -0.44140625 C-3 -1 -3 -1 0 0 Z " fill="#D8291F" transform="translate(85,117)"/>
<path d="M0 0 C0.66 0 1.32 0 2 0 C-0.99457513 8.49930882 -7.72973483 13.15874992 -15.25 17.5625 C-15.85231445 17.92126221 -16.45462891 18.28002441 -17.07519531 18.6496582 C-21.40739125 21.0697749 -21.40739125 21.0697749 -24.421875 20.71484375 C-24.94265625 20.47894531 -25.4634375 20.24304688 -26 20 C-24.33286605 18.88857737 -22.64769817 17.79952974 -20.90625 16.80859375 C-13.3014121 12.47531761 -4.92108627 7.38162941 0 0 Z " fill="#A55A22" transform="translate(106,94)"/>
<path d="M0 0 C3.0625 0.3125 3.0625 0.3125 5 1.5 C6.0625 3.3125 6.0625 3.3125 5.75 6 C5.523125 6.763125 5.29625 7.52625 5.0625 8.3125 C1.7625 8.3125 -1.5375 8.3125 -4.9375 8.3125 C-5.0625 5.4375 -5.0625 5.4375 -4.9375 2.3125 C-2.9375 0.3125 -2.9375 0.3125 0 0 Z " fill="#FDF6EE" transform="translate(82.9375,57.6875)"/>
<path d="M0 0 C0.33 2.31 0.66 4.62 1 7 C-2.3 7 -5.6 7 -9 7 C-10.31236443 2.5856833 -10.31236443 2.5856833 -9 0.125 C-5.89740743 -1.62020832 -3.3726293 -0.69997967 0 0 Z " fill="#FDF8F1" transform="translate(49,59)"/>
<path d="M0 0 C1.12894876 0.93274109 2.25300876 1.87140122 3.375 2.8125 C4.00148438 3.33457031 4.62796875 3.85664062 5.2734375 4.39453125 C7 6 7 6 9 9 C4.5 13 4.5 13 0 13 C-1.18306728 10.63386544 -1.13354608 9.13219264 -1.125 6.5 C-1.12757812 5.7059375 -1.13015625 4.911875 -1.1328125 4.09375 C-1 2 -1 2 0 0 Z " fill="#F8C2B5" transform="translate(31,36)"/>
<path d="M0 0 C1.21755981 0.03927612 1.21755981 0.03927612 2.4597168 0.0793457 C3.7890625 0.10351562 3.7890625 0.10351562 5.14526367 0.12817383 C6.51328125 0.19101563 6.51328125 0.19101563 7.90893555 0.25512695 C8.8402832 0.27768555 9.77163086 0.30024414 10.73120117 0.32348633 C13.02127515 0.38220617 15.3080143 0.46425838 17.59643555 0.56762695 C17.59643555 1.55762695 17.59643555 2.54762695 17.59643555 3.56762695 C5.22143555 4.55762695 5.22143555 4.55762695 -7.40356445 5.56762695 C-2.40356445 0.56762695 -2.40356445 0.56762695 0 0 Z " fill="#F22D22" transform="translate(54.403564453125,4.432373046875)"/>
<path d="M0 0 C0.99 0.33 1.98 0.66 3 1 C3 2.32 3 3.64 3 5 C5.64 5 8.28 5 11 5 C10.01 7.97 9.02 10.94 8 14 C6.66667905 11.3333581 7.32897967 9.83319697 8 7 C6.948125 7.185625 5.89625 7.37125 4.8125 7.5625 C1.42880118 7.95079331 -0.76425888 7.88247485 -4 7 C-3.67 9.31 -3.34 11.62 -3 14 C-5 13 -5 13 -5.6328125 11.15234375 C-5.79523437 10.42144531 -5.95765625 9.69054687 -6.125 8.9375 C-6.29257812 8.20402344 -6.46015625 7.47054687 -6.6328125 6.71484375 C-6.75398438 6.14894531 -6.87515625 5.58304687 -7 5 C-4.36 5 -1.72 5 1 5 C0.67 3.35 0.34 1.7 0 0 Z " fill="#5C3D43" transform="translate(62,95)"/>
<path d="M0 0 C0 3 0 3 -1.21484375 4.61328125 C-5.75776585 9.09439488 -10.57787065 12.64344374 -16 16 C-16.66 15.67 -17.32 15.34 -18 15 C-15.33848768 12.24796005 -12.60577844 9.8206976 -9.5625 7.5 C-8.78132813 6.90058594 -8.00015625 6.30117187 -7.1953125 5.68359375 C-6.47085938 5.12800781 -5.74640625 4.57242188 -5 4 C-3.33001351 2.67082708 -1.66142513 1.33985898 0 0 Z " fill="#070201" transform="translate(111,102)"/>
<path d="M0 0 C-0.85714286 8.57142857 -0.85714286 8.57142857 -3 12 C-4.65 10.02 -6.3 8.04 -8 6 C-6.85675161 4.9970458 -5.71032809 3.99770973 -4.5625 3 C-3.92441406 2.443125 -3.28632812 1.88625 -2.62890625 1.3125 C-1 0 -1 0 0 0 Z " fill="#F8928B" transform="translate(98,37)"/>
<path d="M0 0 C0.94875 0.86625 1.8975 1.7325 2.875 2.625 C6.59805925 5.83794684 10.59883978 8.27376478 14.86328125 10.703125 C17 12 17 12 19 14 C16 15 16 15 13.73046875 14.03125 C8.27534731 10.74644569 3.46359372 7.46290392 0 2 C0 1.34 0 0.68 0 0 Z " fill="#65452C" transform="translate(26,99)"/>
<path d="M0 0 C0.33 0 0.66 0 1 0 C2.17293889 6.3778552 3.29530838 12.50321562 3 19 C2.01 19 1.02 19 0 19 C-2.04367839 12.86896483 -1.06808374 6.27499197 0 0 Z " fill="#F8993E" transform="translate(24,33)"/>
<path d="M0 0 C0 0.66 0 1.32 0 2 C-1.2065625 2.4021875 -1.2065625 2.4021875 -2.4375 2.8125 C-3.283125 3.204375 -4.12875 3.59625 -5 4 C-5.90238747 6.70716242 -6.11851302 8.23776768 -6.09765625 11.01171875 C-6.09443359 11.76904297 -6.09121094 12.52636719 -6.08789062 13.30664062 C-6.07951172 14.09232422 -6.07113281 14.87800781 -6.0625 15.6875 C-6.05798828 16.48478516 -6.05347656 17.28207031 -6.04882812 18.10351562 C-6.0370585 20.06904257 -6.01912348 22.03453085 -6 24 C-8.13586678 20.79619983 -8.23132175 19.98060033 -8.125 16.3125 C-8.10695313 15.50425781 -8.08890625 14.69601563 -8.0703125 13.86328125 C-8.04710938 13.24839844 -8.02390625 12.63351563 -8 12 C-8.66 12 -9.32 12 -10 12 C-9.57405412 10.55903414 -9.13373367 9.12231288 -8.6875 7.6875 C-8.44386719 6.88699219 -8.20023438 6.08648437 -7.94921875 5.26171875 C-6.08023788 0.80846804 -4.91610916 0 0 0 Z " fill="#41160D" transform="translate(28,22)"/>
<path d="M0 0 C0.99 0.33 1.98 0.66 3 1 C-0.465 3.97 -0.465 3.97 -4 7 C-2.68 8.65 -1.36 10.3 0 12 C0.66 10.02 1.32 8.04 2 6 C2.98120464 9.05263664 2.98120464 10.94736336 2 14 C-2.24822374 13.52797514 -4.19989709 11.03344482 -7 8 C-4.69 5.36 -2.38 2.72 0 0 Z " fill="#FBD1C0" transform="translate(95,36)"/>
<path d="M0 0 C2.72943537 -0.05416741 5.45778564 -0.09375225 8.1875 -0.125 C9.34088867 -0.15013672 9.34088867 -0.15013672 10.51757812 -0.17578125 C14.8149434 -0.21266851 18.07901831 0.0041496 22 2 C21.67 2.99 21.34 3.98 21 5 C18.36 5 15.72 5 13 5 C13.66 4.01 14.32 3.02 15 2 C10.05 1.67 5.1 1.34 0 1 C0 0.67 0 0.34 0 0 Z " fill="#BD231C" transform="translate(56,4)"/>
<path d="M0 0 C0.66 0.99 1.32 1.98 2 3 C2.66 2.34 3.32 1.68 4 1 C3.88590407 2.45922693 3.75834456 3.91740598 3.625 5.375 C3.55539063 6.18710937 3.48578125 6.99921875 3.4140625 7.8359375 C3 10 3 10 1 12 C0.01 12.33 -0.98 12.66 -2 13 C-1.34 8.71 -0.68 4.42 0 0 Z " fill="#F79B3F" transform="translate(102,38)"/>
<path d="M0 0 C4.49809265 1.20680534 7.59925981 3.00665327 11.25390625 5.7578125 C13.68745339 7.4890608 16.29624882 8.74704214 19 10 C18.67 10.66 18.34 11.32 18 12 C17.67 11.67 17.34 11.34 17 11 C14.32941149 10.85884839 11.67567762 10.95752893 9 11 C9.33 10.01 9.66 9.02 10 8 C9.278125 7.50628906 8.55625 7.01257813 7.8125 6.50390625 C6.884375 5.86324219 5.95625 5.22257812 5 4.5625 C4.071875 3.92441406 3.14375 3.28632813 2.1875 2.62890625 C1.465625 2.09136719 0.74375 1.55382812 0 1 C0 0.67 0 0.34 0 0 Z " fill="#350F0B" transform="translate(87,14)"/>
<path d="M0 0 C0.66 0.33 1.32 0.66 2 1 C-0.24578442 4.40739705 -2.51137122 7.76478258 -5 11 C-6.32 10.67 -7.64 10.34 -9 10 C-7.61811547 6.78956118 -6.07578097 4.95063635 -3.375 2.75 C-2.74335937 2.22921875 -2.11171875 1.7084375 -1.4609375 1.171875 C-0.73777344 0.59179688 -0.73777344 0.59179688 0 0 Z " fill="#FDF3E6" transform="translate(94,33)"/>
<path d="M0 0 C2.88437779 1.29299694 4.87219421 2.65941363 7 5 C5.68 6.32 4.36 7.64 3 9 C0.90250005 6.64031256 0.03094296 5.45383006 -0.1875 2.25 C-0.125625 1.5075 -0.06375 0.765 0 0 Z " fill="#F78F82" transform="translate(30,39)"/>
<path d="M0 0 C0.33 0 0.66 0 1 0 C2.65 5.94 4.3 11.88 6 18 C5.01 17.67 4.02 17.34 3 17 C1.796875 14.19921875 1.796875 14.19921875 0.75 10.6875 C0.39421875 9.53636719 0.0384375 8.38523437 -0.328125 7.19921875 C-0.954299 4.21761114 -1.07377154 2.7876761 0 0 Z " fill="#190605" transform="translate(4,72)"/>
<path d="M0 0 C1.65 0 3.3 0 5 0 C3.515 2.475 3.515 2.475 2 5 C2.66 5 3.32 5 4 5 C4 6.32 4 7.64 4 9 C3.01 9 2.02 9 1 9 C-0.61949011 6.42786866 -1.04408751 5.32330841 -0.625 2.25 C-0.41875 1.5075 -0.2125 0.765 0 0 Z " fill="#131314" transform="translate(58,85)"/>
<path d="M0 0 C1.41805831 0.28482368 2.83440379 0.57818144 4.25 0.875 C5.03890625 1.03742188 5.8278125 1.19984375 6.640625 1.3671875 C8.96831144 1.99150075 10.89031952 2.84838542 13 4 C12.34 4.66 11.68 5.32 11 6 C6.49354269 5.74964126 3.25629805 5.25629805 0 2 C0 1.34 0 0.68 0 0 Z " fill="#3E251F" transform="translate(44,113)"/>
<path d="M0 0 C3.58189678 1.19396559 4.33296142 2.39907161 6.5625 5.375 C7.16191406 6.16648437 7.76132812 6.95796875 8.37890625 7.7734375 C9.62641046 9.48687702 10.82433106 11.23649659 12 13 C8.89990231 11.61761648 6.71736127 10.01421141 4.3125 7.625 C3.71050781 7.03976563 3.10851562 6.45453125 2.48828125 5.8515625 C0.89864987 3.87391086 0.4094574 2.4785821 0 0 Z " fill="#DF6F29" transform="translate(20,94)"/>
<path d="M0 0 C0.33 1.32 0.66 2.64 1 4 C4.3 4 7.6 4 11 4 C10.01 5.485 10.01 5.485 9 7 C5.375 7.1875 5.375 7.1875 2 7 C2 6.34 2 5.68 2 5 C1.34 5 0.68 5 0 5 C0 3.35 0 1.7 0 0 Z " fill="#FA9E48" transform="translate(57,72)"/>
<path d="M0 0 C0.66 0.33 1.32 0.66 2 1 C2 1.66 2 2.32 2 3 C0.75823305 3.70226141 -0.49385599 4.38629109 -1.75 5.0625 C-2.79414062 5.63677734 -2.79414062 5.63677734 -3.859375 6.22265625 C-6.36140628 7.1312406 -7.5332355 6.88336837 -10 6 C-6.71739341 3.81159561 -3.49181927 1.84114107 0 0 Z " fill="#633B27" transform="translate(90,108)"/>
<path d="M0 0 C-0.99 1.32 -1.98 2.64 -3 4 C-5.31 3.34 -7.62 2.68 -10 2 C-6.19832777 -0.53444815 -4.31588991 -1.33941411 0 0 Z " fill="#DB2B20" transform="translate(51,7)"/>
<path d="M0 0 C0 0.66 0 1.32 0 2 C-0.66 2 -1.32 2 -2 2 C-2 2.66 -2 3.32 -2 4 C-4.64 3.67 -7.28 3.34 -10 3 C-6.59538535 1.23899242 -3.90650339 0 0 0 Z " fill="#362724" transform="translate(81,114)"/>
<path d="M0 0 C2.99324263 1.0975223 3.84610901 1.67682892 5.25 4.625 C5.4975 5.40875 5.745 6.1925 6 7 C5.01 7.495 5.01 7.495 4 8 C0 2.25 0 2.25 0 0 Z " fill="#170505" transform="translate(111,26)"/>
<path d="M0 0 C1.27351308 2.54702616 0.80191925 3.4282945 0.0625 6.125 C-0.13214844 6.84945312 -0.32679687 7.57390625 -0.52734375 8.3203125 C-0.68332031 8.87460937 -0.83929688 9.42890625 -1 10 C-1.66 9.34 -2.32 8.68 -3 8 C-2.54545455 2.54545455 -2.54545455 2.54545455 0 0 Z " fill="#1E0806" transform="translate(6,46)"/>
<path d="M0 0 C0.66 0.33 1.32 0.66 2 1 C1.67 1.66 1.34 2.32 1 3 C1.99 3.33 2.98 3.66 4 4 C2.35 4.66 0.7 5.32 -1 6 C-1.66 4.68 -2.32 3.36 -3 2 C-2.01 1.34 -1.02 0.68 0 0 Z " fill="#DA271B" transform="translate(33,12)"/>
</svg>
