<?xml version="1.0" encoding="UTF-8"?>
<svg version="1.1" xmlns="http://www.w3.org/2000/svg" width="32" height="32">
<path d="M0 0 C4.52209682 3.78594153 6.21254556 7.25362901 6.75 13.19921875 C6.60247551 18.03986611 4.36270634 21.4288031 1.375 25.0625 C-2.68981024 28.37106647 -6.1189761 29.52069706 -11.3125 29.125 C-16.394087 28.28940443 -19.89106859 26.01453555 -23.125 22 C-25.38388209 16.76890464 -25.82487339 12.92944612 -24.1875 7.5625 C-21.63178599 3.04740526 -19.1949983 0.1703325 -14.5 -2.125 C-8.99219987 -3.20496081 -4.96883902 -2.62504703 0 0 Z " fill="#D03221" transform="translate(25.3125,2.75)"/>
<path d="M0 0 C0.99 0 1.98 0 3 0 C3.13517903 2.75164432 3.23415251 5.49664521 3.3125 8.25 C3.35439453 9.02730469 3.39628906 9.80460937 3.43945312 10.60546875 C3.48720026 12.8400346 3.46138465 14.8116231 3 17 C0.05136285 20.05927117 -2.51918689 21.83172578 -6.75 22.3125 C-11.03275809 21.90069634 -13.95798787 20.04201213 -17 17 C-17.07319621 14.30345146 -17.09242537 11.63308542 -17.0625 8.9375 C-17.05798828 8.17888672 -17.05347656 7.42027344 -17.04882812 6.63867188 C-17.0370068 4.75908129 -17.01907078 2.87953101 -17 1 C-14.83125748 1.50603992 -13.00032373 1.99983813 -11 3 C-10.59270772 5.32156597 -10.25561323 7.6568787 -10 10 C-11.32 10 -12.64 10 -14 10 C-13.67 10.66 -13.34 11.32 -13 12 C-10.97536745 12.65213292 -10.97536745 12.65213292 -9 13 C-8.67 11.35 -8.34 9.7 -8 8 C-7.34 8 -6.68 8 -6 8 C-5.67 9.65 -5.34 11.3 -5 13 C-3.02463255 12.65213292 -3.02463255 12.65213292 -1 12 C-0.67 11.34 -0.34 10.68 0 10 C-1.32 10 -2.64 10 -4 10 C-2.8905928 6.51329166 -1.73662334 3.22515763 0 0 Z " fill="#DC9F67" transform="translate(23,7)"/>
<path d="M0 0 C0.66 0.66 1.32 1.32 2 2 C1.76051177 6.94942337 1.54583971 10.29999334 -2 14 C-0.68 14 0.64 14 2 14 C1.67 14.99 1.34 15.98 1 17 C-0.32 17 -1.64 17 -3 17 C-3.33 15.35 -3.66 13.7 -4 12 C-4.66 12 -5.32 12 -6 12 C-6.33 13.65 -6.66 15.3 -7 17 C-8.65 16.67 -10.3 16.34 -12 16 C-12 15.34 -12 14.68 -12 14 C-10.68 14 -9.36 14 -8 14 C-8.350625 13.21625 -8.70125 12.4325 -9.0625 11.625 C-9.371875 10.75875 -9.68125 9.8925 -10 9 C-9.67 8.34 -9.34 7.68 -9 7 C-10.98 6.34 -12.96 5.68 -15 5 C-14.91621094 5.60328125 -14.83242187 6.2065625 -14.74609375 6.828125 C-14.64425781 7.62734375 -14.54242187 8.4265625 -14.4375 9.25 C-14.33308594 10.03890625 -14.22867187 10.8278125 -14.12109375 11.640625 C-13.99972651 14.00532874 -14.30366743 15.7511037 -15 18 C-16.32 18 -17.64 18 -19 18 C-19 14.37 -19 10.74 -19 7 C-18.34 6.67 -17.68 6.34 -17 6 C-16.67 5.01 -16.34 4.02 -16 3 C-14.1875 2.4140625 -14.1875 2.4140625 -12 2 C-9.98570876 1.20529916 -7.99227224 0.37170966 -6 -0.4765625 C-3.5902197 -1.10724719 -2.31431767 -0.87751212 0 0 Z " fill="#E6341D" transform="translate(21,3)"/>
<path d="M0 0 C2.4294516 3.6441774 2.16179575 5.71241272 2 10 C2.99 10.33 3.98 10.66 5 11 C5.474375 11.804375 5.94875 12.60875 6.4375 13.4375 C8.152917 16.25078388 8.90204751 17.02635779 12 18 C17.45300799 18.6340707 21.96880379 16.87831325 27 15 C26 18 26 18 23.9375 19.625 C18.68177053 22.08512869 14.7698287 22.53994774 9.3125 20.875 C4.79740526 18.31928599 1.9203325 15.8824983 -0.375 11.1875 C-1.17225377 7.12150578 -0.70246952 4.0743232 0 0 Z " fill="#5E1813" transform="translate(1,10)"/>
<path d="M0 0 C1.423125 0.2784375 1.423125 0.2784375 2.875 0.5625 C5.89868793 1.28686632 5.89868793 1.28686632 8 0 C8.33 0.66 8.66 1.32 9 2 C9.66 2 10.32 2 11 2 C11.66 1.34 12.32 0.68 13 0 C15.33333333 0 17.66666667 0 20 0 C19.875 1.75 19.875 1.75 19 4 C16.01468309 6.49933509 13.85746501 7.85708916 10 8.5 C6.14253499 7.85708916 3.98531691 6.49933509 1 4 C0.125 1.75 0.125 1.75 0 0 Z " fill="#E8D7D7" transform="translate(6,21)"/>
<path d="M0 0 C2.97 0 5.94 0 9 0 C9 4 9 4 7 7 C8.32 7 9.64 7 11 7 C10.67 7.99 10.34 8.98 10 10 C8.68 10 7.36 10 6 10 C5.67 8.35 5.34 6.7 5 5 C4.34 5 3.68 5 3 5 C2.67 6.65 2.34 8.3 2 10 C0.35 9.67 -1.3 9.34 -3 9 C-3 8.34 -3 7.68 -3 7 C-1.68 7 -0.36 7 1 7 C0.4740625 5.824375 0.4740625 5.824375 -0.0625 4.625 C-0.371875 3.75875 -0.68125 2.8925 -1 2 C-0.67 1.34 -0.34 0.68 0 0 Z " fill="#D67A26" transform="translate(12,10)"/>
<path d="M0 0 C0.99 0 1.98 0 3 0 C3 4.62 3 9.24 3 14 C1.02 14.66 -0.96 15.32 -3 16 C-3.66 15.01 -4.32 14.02 -5 13 C-4.360625 12.87625 -3.72125 12.7525 -3.0625 12.625 C-2.381875 12.41875 -1.70125 12.2125 -1 12 C-0.67 11.34 -0.34 10.68 0 10 C-1.32 10 -2.64 10 -4 10 C-2.8905928 6.51329166 -1.73662334 3.22515763 0 0 Z " fill="#F9973A" transform="translate(23,7)"/>
<path d="M0 0 C0.33 0.474375 0.66 0.94875 1 1.4375 C0.01 1.7675 -0.98 2.0975 -2 2.4375 C-2.66 1.7775 -3.32 1.1175 -4 0.4375 C-6.39156648 0.56205524 -6.39156648 0.56205524 -9 1.1875 C-9.886875 1.36796875 -10.77375 1.5484375 -11.6875 1.734375 C-14.16616739 2.28978375 -14.16616739 2.28978375 -16 4.4375 C-16.99 4.1075 -17.98 3.7775 -19 3.4375 C-19.33 4.7575 -19.66 6.0775 -20 7.4375 C-20.66 7.4375 -21.32 7.4375 -22 7.4375 C-21.00261116 3.84690017 -20.11279244 2.52577235 -17.125 0.1875 C-11.77466997 -2.80868482 -5.2202108 -4.07828969 0 0 Z " fill="#851812" transform="translate(24,2.5625)"/>
<path d="M0 0 C3 1 3 1 4.625 3.0625 C6.63011614 7.34615721 7.74710256 11.47793403 6.38671875 16.0703125 C5.6695963 17.74926269 4.84334834 19.38077119 4 21 C3.34 19.68 2.68 18.36 2 17 C2.66 16.34 3.32 15.68 4 15 C3.60980771 11.91538694 3.60980771 11.91538694 2.6875 8.5 C2.40261719 7.3346875 2.11773438 6.169375 1.82421875 4.96875 C1.12995099 2.100199 1.12995099 2.100199 0 0 Z " fill="#731510" transform="translate(25,4)"/>
<path d="M0 0 C2.16874252 0.50603992 3.99967627 0.99983813 6 2 C6.40729228 4.32156597 6.74438677 6.6568787 7 9 C5.68 9 4.36 9 3 9 C3 8.34 3 7.68 3 7 C2.34 7 1.68 7 1 7 C0.67 4.69 0.34 2.38 0 0 Z " fill="#FDB980" transform="translate(6,8)"/>
<path d="M0 0 C0.86625 0.2784375 0.86625 0.2784375 1.75 0.5625 C4.20692525 1.04023546 5.64397534 0.75729364 8 0 C7.62005832 2.75457718 7.1926367 3.82020574 5.125 5.75 C3 7 3 7 0 7 C0 4.69 0 2.38 0 0 Z " fill="#FAF7F4" transform="translate(18,21)"/>
<path d="M0 0 C2.4294516 3.6441774 2.16179575 5.71241272 2 10 C2.66 10.33 3.32 10.66 4 11 C3 13 3 13 1 14 C-1.20808081 8.80451575 -0.93402724 5.41735797 0 0 Z " fill="#71140F" transform="translate(1,10)"/>
<path d="M0 0 C2 1.5625 2 1.5625 3 3 C2.01 3.33 1.02 3.66 0 4 C-0.66 3.34 -1.32 2.68 -2 2 C-4.43252661 1.53837573 -4.43252661 1.53837573 -7.125 1.375 C-8.03507813 1.30023438 -8.94515625 1.22546875 -9.8828125 1.1484375 C-10.58148438 1.09945313 -11.28015625 1.05046875 -12 1 C-7.79054872 -1.43903329 -4.61829306 -1.23546693 0 0 Z " fill="#64120F" transform="translate(22,1)"/>
<path d="M0 0 C2.4294516 3.6441774 2.16179575 5.71241272 2 10 C0.68 10 -0.64 10 -2 10 C-1.34 6.7 -0.68 3.4 0 0 Z " fill="#E22919" transform="translate(4,11)"/>
<path d="M0 0 C0.928125 1.175625 0.928125 1.175625 1.875 2.375 C3.89858661 4.96837647 3.89858661 4.96837647 6 7 C3.69 6.67 1.38 6.34 -1 6 C-1.33 4.35 -1.66 2.7 -2 1 C-1.34 0.67 -0.68 0.34 0 0 Z " fill="#943528" transform="translate(5,21)"/>
<path d="M0 0 C0.99 0.33 1.98 0.66 3 1 C2.34 1 1.68 1 1 1 C1.33 4.3 1.66 7.6 2 11 C1.01 9.68 0.02 8.36 -1 7 C-1.66 7 -2.32 7 -3 7 C-2.38722388 4.03824877 -1.74627478 2.61941217 0 0 Z " fill="#BD3E1E" transform="translate(5,6)"/>
<path d="M0 0 C3.3 0.33 6.6 0.66 10 1 C10 1.66 10 2.32 10 3 C6.6875 3.1875 6.6875 3.1875 3 3 C2.01 2.01 1.02 1.02 0 0 Z " fill="#7F1F1A" transform="translate(7,28)"/>
<path d="M0 0 C1.98 0.99 1.98 0.99 4 2 C4.25 9.625 4.25 9.625 2 13 C2.33 9.7 2.66 6.4 3 3 C2.01 3 1.02 3 0 3 C0 2.01 0 1.02 0 0 Z " fill="#BC401F" transform="translate(23,4)"/>
<path d="M0 0 C0.99 0 1.98 0 3 0 C2.67 1.98 2.34 3.96 2 6 C0.68 5.34 -0.64 4.68 -2 4 C-1.34 2.68 -0.68 1.36 0 0 Z " fill="#FBC7A2" transform="translate(23,7)"/>
<path d="M0 0 C0.99 0.66 1.98 1.32 3 2 C2.01 3.485 2.01 3.485 1 5 C-0.32 5 -1.64 5 -3 5 C-1.125 1.125 -1.125 1.125 0 0 Z " fill="#FEAE65" transform="translate(22,12)"/>
</svg>
