/* XPM */
static char *_734396511292[] = {
/* columns rows colors chars-per-pixel */
"32 32 188 2 ",
"   c black",
".  c #29190A",
"X  c #25170A",
"o  c #1D1E21",
"O  c #570E0F",
"+  c #4A100A",
"@  c #5C130D",
"#  c #51100A",
"$  c #5D1211",
"%  c #61120F",
"&  c #68130F",
"*  c #641411",
"=  c #691412",
"-  c #6B3E17",
";  c #71301A",
":  c #6A251C",
">  c #652B21",
",  c #663520",
"<  c #7B491A",
"1  c #774519",
"2  c #7B583C",
"3  c #5A5A5A",
"4  c #6A5B59",
"5  c #7F644A",
"6  c #6C615F",
"7  c #606161",
"8  c #797979",
"9  c #9A180D",
"0  c #861A14",
"q  c #8E1B16",
"w  c #941B14",
"e  c #9C1C15",
"r  c #9D1C18",
"t  c #A31E16",
"y  c #AA1D16",
"u  c #A61F18",
"i  c #AB1F19",
"p  c #B21D16",
"a  c #BB1E14",
"s  c #B61D19",
"d  c #8C251F",
"f  c #9E2C12",
"g  c #952812",
"h  c #973D1C",
"j  c #AC2117",
"k  c #A62118",
"l  c #AC2018",
"z  c #AB2B16",
"x  c #B52116",
"c  c #BB2316",
"v  c #B4221A",
"b  c #BB241A",
"n  c #BA2B19",
"m  c #B62F16",
"M  c #B5331B",
"N  c #B33B1C",
"B  c #B9341D",
"V  c #8B2420",
"C  c #B32E20",
"Z  c #AE243B",
"A  c #C51D16",
"S  c #D61F14",
"D  c #C3241B",
"F  c #CB241A",
"G  c #C52619",
"H  c #D3251B",
"J  c #D92419",
"K  c #E22519",
"L  c #EA251A",
"P  c #E6291C",
"I  c #EC291C",
"U  c #E52217",
"Y  c #F5251A",
"T  c #FB261B",
"R  c #F52A1B",
"E  c #FA2A1C",
"W  c #EC1E35",
"Q  c #EF2133",
"!  c #8B4D18",
"~  c #944E18",
"^  c #925017",
"/  c #AF491E",
"(  c #B1421D",
")  c #B24D1C",
"_  c #B94118",
"`  c #AC5F1C",
"'  c #BB541E",
"]  c #B7571E",
"[  c #B3641D",
"{  c #99443F",
"}  c #AE4A20",
"|  c #AC4720",
" . c #B24720",
".. c #B24821",
"X. c #B85921",
"o. c #93663D",
"O. c #AF6624",
"+. c #B46624",
"@. c #BD6B26",
"#. c #CA6F29",
"$. c #CD7328",
"%. c #CE7829",
"&. c #DC7F29",
"*. c #D37F32",
"=. c #984A56",
"-. c #8D6F50",
";. c #997352",
":. c #8A7B71",
">. c #B96F67",
",. c #BC767C",
"<. c #DD812A",
"1. c #EE8C2C",
"2. c #E68729",
"3. c #FF8B25",
"4. c #F38D2C",
"5. c #FF8E2B",
"6. c #F18724",
"7. c #FE922D",
"8. c #FB8F30",
"9. c #F69733",
"0. c #FE9332",
"q. c #FE963A",
"w. c #F69A3A",
"e. c #FF9838",
"r. c #FFA13E",
"t. c #90897F",
"y. c #BB8875",
"u. c #E99E4B",
"i. c #FE9C45",
"p. c #FFA347",
"a. c #FFA44F",
"s. c #EDA85D",
"d. c #FEA959",
"f. c #C18A77",
"g. c #FEAC63",
"h. c #FDAF69",
"j. c #FDB06A",
"k. c #FCB975",
"l. c #FDB777",
"z. c #B97A81",
"x. c #818284",
"c. c #BF898F",
"v. c #9DA3A3",
"b. c #C0878C",
"n. c #F98F86",
"m. c #F89589",
"M. c #F99C98",
"N. c #FAAE86",
"B. c #FEBE84",
"V. c #F8B889",
"C. c #FBC48C",
"Z. c #FFC280",
"A. c #FFCB94",
"S. c #FFCD9B",
"D. c #FEC69A",
"F. c #FFD19D",
"G. c #FECDA1",
"H. c #FAC6A4",
"J. c #FED2A3",
"K. c #FED3AA",
"L. c #FEDEB6",
"P. c #CCCAC9",
"I. c #D3CDC8",
"U. c #D6D0CD",
"Y. c #D6D5D4",
"T. c #D6DEDF",
"R. c #DCDCDC",
"E. c #FCDBD9",
"W. c #FFE1C6",
"Q. c #FFE6CC",
"!. c #FEEEDE",
"~. c #FEE6D7",
"^. c #EAEBEB",
"/. c #E9E7E7",
"(. c #FAE3E4",
"). c #FEEAE3",
"_. c #FDEEEF",
"`. c #FDF2E4",
"'. c #FEF6ED",
"]. c #FEF8EF",
"[. c #EEEFF0",
"{. c #EEF3F2",
"}. c #F0F1F1",
"|. c #FEF9F3",
" X c #F5FFFF",
".X c #FFFFFF",
"XX c #FDF1F3",
"oX c None",
/* pixels */
"oXoXoXoXoXoXoXoXoXoXoXoXoXoXoXoXoXoXoXoXoXoXoXoXoXoXoXoXoXoXoXoX",
"oXoXoXoXoXoXoXoXoXoXoXoX= q r u k r q = oXoXoXoXoXoXoXoXoXoXoXoX",
"oXoXoXoXoXoXoXoXoXoXk D D s u u t j v D b t oXoXoXoXoXoXoXoXoXoX",
"oXoXoXoXoXoXoXoXk F i f C H P I I P H v r i H r oXoXoXoXoXoXoXoX",
"oXoXoXoXoXoX* G s r J E E E R E E R E E E H e b D O oXoXoXoXoXoX",
"oXoXoXoXoX% a w D E E R R E R R R E R R R E E c r D $ oXoXoXoXoX",
"oXoXoXoXoXz #.+.N I R R R E E R E R E R R R K N @.#.C O oXoXoXoX",
"oXoXoXoXA ) i.p.2.} P R R R E E R R R R R J / 1.p.p...A oXoXoXoX",
"oXoXoXt p ~ S.|.A.9./ J E E T Y Y Y Y T H / 9.S.].A.~ s e oXoXoX",
"oXoXoXH 9 ' K.XX(.L.w...n M N ( ( ( m c / i.L.~._.A.) w H oXoXoX",
"oXoXk z J _ C.E.n.(.F.4.<.4.7.7.7.7.1.<.6.J.E.n.E.k.N H l r oXoX",
"oXoXD r T m s.).m.N.i.7.0.7.7.0.7.7.7.7.7.p.N.M.).u.m E r D oXoX",
"oXoXD x E F *.`.H.5.5.5.0.7.8.8.0.0.8.5.5.3.5.H.~.%.H E v D % oX",
"oXr v H T L ] Z.i.7.5.3.5.0.8.5.7.7.0.5.3.3.3.i.k.' I E J v 0 oX",
"oXl k P Y T N 6.5.3.d.B.q.5.5.8.e.5.5.q.B.d.7.7.6.B E Y K k t oX",
"oXp t I Y T n 2.7.q.]..XG.3.3.K.C.3.3.K..X'.e.7.<.G E Y L t i oX",
"oXy y I Y L / 7.5.q.S.S.g.3.i.|.).e.3.j.S.A.0.7.7.) Y Y L t t oX",
"oXy y P E G %.7.7.! ^ 6.7.3.B..X.Xg.3.7.6.^ ! 7.7.$.H T K k r oX",
"oXe y J T m 4.7.7.-   X O.3.S.!.!.B.3.+..   < 7.7.1.M E F v 0 oX",
"oXoXG c Y ) 7.7.8.1.1 . . [ d.l.k.a.` . . < 4.7.5.7.( E x G % oX",
"oXoXG e L ' 7.3.3.5.0.0.4.V.`.^./.`.V.4.7.9.7.3.3.7.' U e b oXoX",
"oXoXi y A y.Q.W.G.g.3.3.A..Xx.o o x..XA.3.5.d.S.W.Q.f.A j g oXoX",
"oXoXoXH 9 >. X.X.X.XG.l..X.X8     8 .X.Xk.K..X.X.X.X>.9 F oXoXoX",
"oXoXoXt a h U..X.X.X.X.X.X.X{.7 3 ^..X.X.X.X.X.X.XI.~ D e oXoXoX",
"oXoXoXoXA f ;.[..X.X.X.X.X^.Y.P.P.R.}..X.X.X.X.X^.o.z G oXoXoXoX",
"oXoXoXoXoXJ g ;.}..X.X.X.X}.=.Z Z =.{..X.X.X.X/.-.f J # oXoXoXoX",
"oXoXoXoXoX= H d 5 Y..X.X.X.Xz.W Q ,..X.X.X.XI.2 f J @ oXoXoXoXoX",
"oXoXoXoXoXoXoXF v , t.R..X.X^.c.b./..X.XY.:.; n b + oXoXoXoXoXoX",
"oXoXoXoXoXoXoXoXu H t > 6 v.T. X XT.v.4 : y H w oXoXoXoXoXoXoXoX",
"oXoXoXoXoXoXoXoXoXoXi G A 9 d { { V e A D w oXoXoXoXoXoXoXoXoXoX",
"oXoXoXoXoXoXoXoXoXoXoXoXoXq r t e e 0 oXoXoXoXoXoXoXoXoXoXoXoXoX",
"oXoXoXoXoXoXoXoXoXoXoXoXoXoXoXoXoXoXoXoXoXoXoXoXoXoXoXoXoXoXoXoX"
};
